<?xml version="1.0" encoding="utf-8"?>
<svg version="1.1" id="Mullvad_VPN_Logo_Color_Pos" xmlns="http://www.w3.org/2000/svg" xmlns:xlink="http://www.w3.org/1999/xlink"
	 x="0px" y="0px" viewBox="0 0 400 400" style="enable-background:new 0 0 400 400;" xml:space="preserve">
<style type="text/css">
	.background{fill-rule:evenodd;clip-rule:evenodd;fill:#192E45;}
	.fur{fill-rule:evenodd;clip-rule:evenodd;fill:#D2943B;}
	.nose{fill-rule:evenodd;clip-rule:evenodd;fill:#FFCD86;}
	.helmet{fill-rule:evenodd;clip-rule:evenodd;fill:#FFD524;}
	.lamp-light{fill:#FFFFFF;}
	.lamp-ring{fill:#192E45;}
	.text{fill:#192E45;}
</style>
<g id="logo">
	<g id="mole">
		<path id="bg" class="background" d="M74,198.1c0,69.6,56.5,126,126,126
			s126-56.4,126-126s-56.4-126-126-126S74,128.4,74,198.1L74,198.1L74,198.1L74,198.1z"/>
		<g id="body">
			<path id="fur" class="fur" d="M97.9,168.7l-7.1,14.4l9.6-13.4
				c0,0.1-0.6,19.3-0.6,19.3l2.7-14.5c7.2,13.7,23.1,34.8,45.4,50.5c1.7,1.2,3.9,3.3,4.6,4.1c0,0,21.3,10.8,54.1-14.2
				c0.3-0.2,0.7-0.4,1-0.6l0.5,0.3l7.2,4.8c-2.5-0.7-7.3-1.9-7.3-1.9c-15.8,18.2-41.5,21.2-55.3,12c-0.6-0.4-4,1-4.6,3
				c-0.4,1.1,0,2.3,0.5,3.2c2.8,5.2,7,4.7,5,10.8c-1.4,3.3-3.4,6.5-5.6,9.5c-4.6,6.2-11.8,11.7-11.1,15
				c32.6,40.2,106.1,34.6,134.1-1.3c-0.4-5.2-8.6-7.7-14.3-20.4c1.6,0.5,4,1.2,4,1.1c0-0.1-6.8-11.1-7.1-12.2l4.4,0.3
				c0,0-5.8-7.2-6-7.9l5.9-0.8c0,0-7.4-8.5-7.5-9.2l7.5,1.2l-8.2-9.9h3.9l-4.6-6.7l-37.3-14.7c-14.3-8.9-27-19.8-36.6-28.2
				l-19.3-9.4c-18.5-1.4-35.8-0.9-46.4,1.2l6.8-11.6l-9.9,11.8c-0.7-0.2-1.4-0.4-1.4-0.4l0.7-15l-3.3,14L97.9,168.7z"/>
			<path id="nose" class="nose" d="M102.4,152.9c-4.9-2.3-10.6,1-11.6,5.5
				c-1.2,4.3,1.8,9.6,7.1,10.3C102.9,165.6,107.2,157.6,102.4,152.9z"/>
		</g>
		<g id="helmet">
			<path id="helmet" class="helmet" d="M175.2,141.9c-1.5-4.1-1.1-9.4,1-14.4
				c3-6.9,8.7-11.5,14.1-11.5c1.1,0,2.1,0.2,3.1,0.6c3.1-2.8,6.7-5.1,10.7-6.7c22-8.8,54.3,6.9,62.6,28.5c4,10.5,2.8,21.9-0.6,32.4
				c-2.8,8.6-13,21-9.2,30.3c-1.5-0.4-32.8-11-41.8-15.8c-14.1-8.8-26.7-19.6-36.2-27.9l-0.3-0.3l-32-15.2c-0.4-0.2-0.8-0.4-1.1-0.6
				C149.9,141.6,167.4,143.7,175.2,141.9"/>
			<g id="helmet_lamp">
				<path id="lamp-light" class="lamp-light" d="M184.6,145.6c-0.9,0-1.6-0.2-2.3-0.5c-1.6-0.7-2.8-2-3.6-4c-1.4-3.4-1-8.1,0.9-12.5
					c2.5-5.6,7.3-9.7,11.5-9.7c0.8,0,1.6,0.2,2.4,0.5c2.1,0.9,3.6,3,4.1,6c0.6,3.2,0.1,6.9-1.5,10.4
					C193.7,141.4,188.8,145.6,184.6,145.6z"/>
				
				<path id="lamp-ring" class="lamp-ring" d="M191.1,120.6c0.6,0,1.2,0.1,1.8,0.4c1.6,0.7,2.8,2.5,3.2,4.9c0.5,2.9,0.1,6.3-1.4,9.5
					c-2.2,5.1-6.5,8.8-10.1,8.8c-0.6,0-1.2-0.1-1.7-0.3l0,0l0,0c-1.5-0.6-2.3-2-2.7-3.1c-1.2-3-0.9-7.4,0.8-11.4
					C183.2,124.2,187.5,120.6,191.1,120.6 M191.1,117.6c-4.8,0-10.1,4.4-12.9,10.7c-2.1,4.7-2.4,9.8-0.9,13.7
						c0.9,2.3,2.4,3.9,4.3,4.8c0.9,0.4,1.9,0.6,3,0.6c4.8,0,10.1-4.4,12.8-10.7c1.7-3.8,2.2-7.8,1.6-11.3s-2.5-5.8-4.9-7.1
					C193.2,117.8,192.1,117.6,191.1,117.6L191.1,117.6z"/>
				
			</g>
		</g>
	</g>
	<g id="strokes">
		<path class="text" d="M311.7,298.6l-4.5-4c22.8-25.3,35.8-58.2,36.5-92.5l6,0.1C349,238,335.5,272.2,311.7,298.6z"/>
		<path class="text" d="M88.3,298.6C64.5,272.2,51,238,50.2,202.3l6-0.1c0.8,34.3,13.7,67.1,36.5,92.5L88.3,298.6z"/>
	</g>
	<g id="privacy-is-a-universal-right">
		<path class="text" d="M62.7,193.4c0,0.2-0.2,0.3-0.4,0.3l-20.2-3.6c-0.2,0-0.3-0.2-0.3-0.4l1.5-8.1c0.8-4.5,4-6.8,8-6
			c3.9,0.7,6.2,4,5.4,8.5l-0.7,3.7c0,0.1,0,0.2,0.2,0.2l6.9,1.3c0.2,0,0.3,0.2,0.3,0.4L62.7,193.4z M50.6,180
			c-1.7-0.3-3,0.6-3.4,2.5l-0.6,3.4c0,0.1,0,0.2,0.2,0.2L52,187c0.1,0,0.2,0,0.2-0.2l0.6-3.4C53.2,181.7,52.3,180.3,50.6,180z"/>
		<path class="text" d="M67.6,163.6c-0.1,0.3-0.2,0.3-0.4,0.4l-8.4,1.8l-0.6,2.8c0,0.1,0,0.2,0.1,0.2l7.4,1.7c0.2,0,0.3,0.2,0.2,0.4
			l-0.9,3.9c0,0.2-0.2,0.3-0.4,0.2l-20-4.6c-0.2,0-0.3-0.2-0.2-0.4l1.9-8.2c1-4.2,4.2-6.4,8-5.5c2.6,0.6,4.4,2.5,4.9,5l9.1-2.2
			c0.2,0,0.4,0.1,0.3,0.3L67.6,163.6z M53.3,160.7c-1.5-0.4-2.8,0.5-3.2,2.2l-0.8,3.6c0,0.1,0,0.2,0.1,0.2l4.8,1.1
			c0.1,0,0.2,0,0.2-0.1l0.8-3.6C55.6,162.3,54.9,161,53.3,160.7z"/>
		<path class="text" d="M49.9,150c-0.2-0.1-0.3-0.2-0.2-0.4l1.3-3.7c0.1-0.2,0.2-0.3,0.4-0.2l19.5,6.5c0.2,0.1,0.3,0.2,0.2,0.4
			l-1.3,3.7c-0.1,0.2-0.2,0.3-0.4,0.2L49.9,150z"/>
		<path class="text" d="M74.4,144c-0.1,0.2-0.3,0.3-0.4,0.2L52.5,142c-0.2,0-0.3-0.2-0.2-0.4l1.6-3.7c0.1-0.2,0.2-0.3,0.4-0.2
			l14.4,1.8v-0.1l-11-9.4c-0.2-0.1-0.2-0.3-0.1-0.5l1.6-3.7c0.1-0.2,0.2-0.2,0.4-0.1l16,14.5c0.1,0.1,0.2,0.3,0.1,0.5L74.4,144z"/>
		<path class="text" d="M64.2,118.1c-0.1-0.2-0.2-0.3-0.1-0.5l2-3.3c0.1-0.2,0.3-0.2,0.5-0.2l21.3,4.6c0.2,0,0.3,0.2,0.2,0.3
			l-2.1,3.5c-0.1,0.2-0.3,0.2-0.5,0.2l-3.8-0.9l-3.9,6.3l2.5,2.9c0.2,0.2,0.2,0.3,0.1,0.5l-2.1,3.5c-0.1,0.2-0.3,0.2-0.4,0
			L64.2,118.1z M77.7,120.8l-7.6-1.8v0.1l5.1,5.9L77.7,120.8z"/>
		<path class="text" d="M80.2,112c-2.6-2-3.3-2.8-4.1-4c-2-3-1.7-6.2,0.6-9.1c2.2-2.8,5.2-3.7,8.3-2.8c0.2,0,0.3,0.2,0.2,0.4
			l-0.9,3.6c0,0.2-0.2,0.3-0.4,0.2c-1.4-0.4-2.9-0.3-4,1.1c-1,1.3-1,2.7-0.2,3.9c0.5,0.7,1,1.2,3.3,3.1c2.4,1.9,3,2.3,3.8,2.6
			c1.4,0.5,2.8,0.3,3.8-1c1.1-1.4,0.9-2.8,0.2-4.1c-0.1-0.2,0-0.3,0.2-0.4l3.3-1.7c0.2-0.1,0.3-0.1,0.4,0.1c1.6,2.8,1.3,5.9-0.9,8.7
			c-2.3,2.9-5.4,3.9-8.8,2.6C83.7,114.6,82.8,114,80.2,112z"/>
		<path class="text" d="M103.2,101.5c-0.1,0.1-0.3,0.1-0.4,0l-5.7-5.9L84,91.1c-0.2-0.1-0.2-0.2-0.1-0.4l2.9-2.8
			c0.2-0.2,0.3-0.2,0.6-0.1l8.1,2.9l0.1-0.1L93,82.4c-0.1-0.2,0-0.4,0.1-0.5l2.8-2.7c0.2-0.2,0.3-0.1,0.4,0.1l4.2,13.2l5.7,5.8
			c0.1,0.1,0.1,0.3,0,0.4L103.2,101.5z"/>
		<path class="text" d="M104.9,72.4c-0.1-0.2-0.1-0.3,0.1-0.4l3.2-2.3c0.2-0.1,0.3-0.1,0.4,0.1l12.2,16.5c0.1,0.2,0.1,0.3-0.1,0.4
			l-3.2,2.3c-0.2,0.1-0.3,0.1-0.4-0.1L104.9,72.4z"/>
		<path class="text" d="M121.6,82.6c-0.2,0-0.3-0.2-0.3-0.4l0.6-3.5c0-0.2,0.2-0.3,0.4-0.3c1.8,0.2,3.9,0.2,5.9-1
			c1.9-1.1,2.4-2.7,1.7-3.9c-0.6-1.1-1.7-1.4-4-0.4l-1,0.4c-4,1.7-7.1,1.2-9-2c-2-3.3-0.8-7.1,3.1-9.4c2.4-1.4,5.1-2.1,7.3-1.8
			c0.2,0,0.3,0.1,0.3,0.4l-0.2,3.4c0,0.2-0.1,0.3-0.3,0.3c-1.9-0.1-3.6,0.2-5,1.1c-1.6,1-1.9,2.3-1.2,3.4c0.6,1,1.8,1.3,4,0.3l1-0.4
			c4-1.7,7-1.2,9,2.1s1,7.2-3.7,10C127.2,82.6,123.8,83.1,121.6,82.6z"/>
		<path class="text" d="M143.7,50.8c0-0.2,0.1-0.4,0.3-0.4l3.7-1.3c0.2-0.1,0.4,0,0.5,0.2L162,66.1c0.1,0.2,0.1,0.3-0.1,0.4l-3.8,1.4
			c-0.2,0.1-0.4,0-0.5-0.2l-2.4-3.1l-7,2.5l0.2,3.9c0,0.2-0.1,0.4-0.3,0.4l-3.8,1.4c-0.2,0.1-0.3,0-0.3-0.2L143.7,50.8z M152.7,61.3
			l-4.8-6.1h-0.1l0.3,7.8L152.7,61.3z"/>
		<path class="text" d="M169.3,56.5l-2-12.9c0-0.2,0.1-0.3,0.3-0.4l3.9-0.6c0.2,0,0.3,0.1,0.4,0.3l2.1,13c0.4,2.5,2,3.7,4.1,3.4
			s3.2-2,2.9-4.5l-2.1-13c0-0.2,0.1-0.3,0.3-0.4l3.9-0.6c0.2,0,0.3,0.1,0.4,0.3l2,12.9c0.8,5.2-2.1,8.5-6.7,9.3
			C173.9,64,170.2,61.7,169.3,56.5z"/>
		<path class="text" d="M189.5,40.6c0-0.2,0.1-0.3,0.3-0.3l3.7-0.1c0.2,0,0.4,0.1,0.5,0.3l7.7,13.2h0.2l-0.2-13.3
			c0-0.2,0.1-0.3,0.3-0.3l3.5-0.1c0.2,0,0.3,0.1,0.3,0.3l0.3,20.5c0,0.2-0.1,0.3-0.3,0.3l-3.7,0.1c-0.2,0-0.4-0.1-0.5-0.3l-7.7-13.2
			h-0.2l0.2,13.3c0,0.2-0.1,0.3-0.3,0.3l-3.5,0.1c-0.2,0-0.3-0.1-0.3-0.3L189.5,40.6z"/>
		<path class="text" d="M211.4,40.8c0-0.2,0.2-0.3,0.3-0.3l3.9,0.3c0.2,0,0.3,0.2,0.3,0.3l-1.8,20.5c0,0.2-0.2,0.3-0.3,0.3l-3.9-0.3
			c-0.2,0-0.3-0.2-0.3-0.3L211.4,40.8z"/>
		<path class="text" d="M223.1,63.2c-0.2,0-0.3-0.2-0.3-0.4l-2.9-21.4c0-0.2,0.1-0.3,0.3-0.3l4,0.7c0.2,0,0.3,0.2,0.3,0.4l1.7,14.4
			h0.1l6.5-12.9c0.1-0.2,0.2-0.3,0.5-0.2l3.9,0.7c0.2,0,0.3,0.2,0.2,0.4l-10.3,19c-0.1,0.2-0.2,0.3-0.4,0.2L223.1,63.2z"/>
		<path class="text" d="M241.6,45.8c0.1-0.2,0.2-0.3,0.4-0.2l12.9,4.1c0.2,0.1,0.3,0.2,0.2,0.4l-1,3.2c-0.1,0.2-0.2,0.3-0.4,0.2
			l-8.7-2.8c-0.1,0-0.2,0-0.2,0.1l-1.3,4c0,0.1,0,0.2,0.1,0.2l7.2,2.3c0.2,0.1,0.3,0.2,0.2,0.4l-1,3.1c-0.1,0.2-0.2,0.3-0.4,0.2
			l-7.2-2.3c-0.1,0-0.2,0-0.2,0.1l-1.3,4.2c0,0.1,0,0.2,0.1,0.2l8.7,2.8c0.2,0.1,0.3,0.2,0.2,0.4l-1,3.2c-0.1,0.2-0.2,0.3-0.4,0.2
			l-12.9-4.1c-0.2-0.1-0.3-0.2-0.2-0.4L241.6,45.8z"/>
		<path class="text" d="M261.9,75.9c-0.3-0.1-0.3-0.2-0.3-0.5v-8.6l-2.6-1.2c-0.1-0.1-0.2,0-0.2,0.1l-3.2,6.8
			c-0.1,0.2-0.2,0.2-0.4,0.1l-3.6-1.7c-0.2-0.1-0.2-0.2-0.1-0.4l8.7-18.6c0.1-0.2,0.2-0.2,0.4-0.1l7.6,3.6c3.9,1.8,5.3,5.5,3.7,9
			c-1.2,2.4-3.4,3.8-5.9,3.7l0.2,9.3c0,0.2-0.2,0.3-0.4,0.2L261.9,75.9z M267.8,62.6c0.7-1.4,0.1-2.8-1.5-3.6l-3.4-1.6
			c-0.1-0.1-0.2,0-0.2,0.1l-2.1,4.4c-0.1,0.1,0,0.2,0.1,0.2l3.4,1.6C265.7,64.5,267.1,64.1,267.8,62.6z"/>
		<path class="text" d="M268.7,76.5c0-0.2,0-0.4,0.3-0.5l3.5-1c0.2-0.1,0.3,0,0.4,0.2c0.6,1.7,1.6,3.6,3.5,4.8c1.9,1.2,3.5,1,4.3-0.2
			c0.7-1,0.5-2.1-1.5-3.8l-0.9-0.7c-3.3-2.8-4.2-5.8-2.2-9c2.1-3.3,6-3.8,9.8-1.4c2.4,1.5,4.1,3.6,4.8,5.8c0.1,0.2,0,0.3-0.2,0.4
			l-3.1,1.3c-0.2,0.1-0.3,0-0.4-0.2c-0.8-1.8-1.8-3.1-3.2-4c-1.6-1-2.9-0.7-3.6,0.4c-0.7,1-0.3,2.1,1.5,3.7l0.9,0.7
			c3.3,2.9,4.2,5.8,2.1,9s-6,4.1-10.6,1.1C271.2,81.5,269.2,78.7,268.7,76.5z"/>
		<path class="text" d="M300.7,76.7c0.2-0.1,0.3-0.1,0.5,0l3,2.5c0.2,0.1,0.2,0.3,0.1,0.5l-7.9,20.2c-0.1,0.2-0.2,0.2-0.4,0.1
			l-3.1-2.6c-0.2-0.1-0.2-0.3-0.1-0.5l1.5-3.6l-5.6-4.8l-3.3,2c-0.2,0.1-0.3,0.1-0.5,0l-3.1-2.6c-0.2-0.1-0.1-0.3,0-0.4L300.7,76.7z
			 M295.9,89.6l3-7.2l-0.1-0.1l-6.6,4.1L295.9,89.6z"/>
		<path class="text" d="M312.8,87.7c0.1-0.1,0.3-0.1,0.4,0l2.6,2.9c0.1,0.1,0.1,0.3,0,0.4l-12.3,11.1c-0.1,0.1-0.1,0.2,0,0.3l6.2,6.9
			c0.1,0.1,0.1,0.3,0,0.4l-2.6,2.3c-0.1,0.1-0.3,0.1-0.4,0l-9.2-10.2c-0.1-0.1-0.1-0.3,0-0.4L312.8,87.7z"/>
		<path class="text" d="M318.6,129.6c-0.1-0.2-0.1-0.4,0-0.6l4.7-7.2l-1.5-2.4c-0.1-0.1-0.2-0.1-0.3-0.1l-6.4,4
			c-0.2,0.1-0.3,0.1-0.4-0.1l-2.1-3.4c-0.1-0.2-0.1-0.3,0.1-0.4l17.5-10.8c0.2-0.1,0.3-0.1,0.4,0.1l4.4,7.2c2.3,3.7,1.5,7.5-1.8,9.6
			c-2.3,1.4-4.9,1.3-7-0.1l-4.9,7.9c-0.1,0.2-0.3,0.2-0.4,0L318.6,129.6z M330.9,121.7c1.3-0.8,1.6-2.3,0.7-3.8l-2-3.2
			c-0.1-0.1-0.2-0.1-0.3-0.1l-4.2,2.6c-0.1,0.1-0.1,0.2-0.1,0.3l2,3.2C328,122.1,329.5,122.5,330.9,121.7z"/>
		<path class="text" d="M340.8,126.8c0.2-0.1,0.3,0,0.4,0.1l1.7,3.5c0.1,0.2,0,0.3-0.1,0.4l-18.4,9c-0.2,0.1-0.3,0-0.4-0.1l-1.7-3.5
			c-0.1-0.2,0-0.3,0.1-0.4L340.8,126.8z"/>
		<path class="text" d="M335.4,139c2.9-1.1,4.1-1.4,5.6-1.5c3.6-0.2,6.2,2,7.5,5.5c1.4,3.7,0.4,6.8-1.6,8.6c-0.1,0.2-0.3,0.2-0.5,0
			l-2.5-2.6c-0.1-0.2-0.1-0.3,0-0.5c1-1.3,1.4-2.5,0.8-4.2s-1.9-2.4-3.4-2.4c-0.8,0-1.8,0.3-4.3,1.2c-2.6,1-3.5,1.4-4.1,1.9
			c-1.2,0.9-1.6,2.3-1,4c0.6,1.5,1.8,2.5,3.2,2.4c0.5,0,1.2-0.2,2-0.5c0.1,0,0.2-0.1,0.1-0.2l-1-2.7c-0.1-0.2,0-0.3,0.2-0.4l2.8-1
			c0.2-0.1,0.3,0,0.4,0.2l2.5,6.8c0.1,0.2,0,0.3-0.2,0.4l-1.6,0.6c-1.8,0.6-3.4,1.1-4.6,1.2c-3.5,0.2-6.3-1.9-7.6-5.4
			c-1.3-3.5-0.7-6.9,2.1-9.1C331.4,140.7,332.5,140.1,335.4,139z"/>
		<path class="text" d="M352.4,156.5c0.2,0,0.3,0.1,0.4,0.2l0.8,3.9c0,0.2-0.1,0.3-0.2,0.4l-7.8,1.7c-0.1,0-0.2,0.1-0.1,0.2l1.5,6.7
			c0,0.1,0.1,0.2,0.2,0.1l7.8-1.7c0.2,0,0.3,0.1,0.4,0.2l0.8,3.9c0,0.2-0.1,0.3-0.2,0.4l-20.1,4.4c-0.2,0-0.3-0.1-0.4-0.2l-0.8-3.9
			c0-0.2,0.1-0.3,0.2-0.4l8-1.7c0.1,0,0.2-0.1,0.1-0.2l-1.5-6.7c0-0.1-0.1-0.2-0.2-0.1l-8,1.7c-0.2,0-0.3-0.1-0.4-0.2l-0.8-3.9
			c0-0.2,0.1-0.3,0.2-0.4L352.4,156.5z"/>
		<path class="text" d="M336.3,185c0-0.2,0.1-0.3,0.3-0.3l16.5-1.3c0.1,0,0.2-0.1,0.2-0.2l-0.4-5.3c0-0.2,0.1-0.3,0.3-0.3l3.4-0.3
			c0.2,0,0.3,0.1,0.3,0.3l1.3,15.6c0,0.2-0.1,0.3-0.3,0.3l-3.4,0.3c-0.2,0-0.3-0.1-0.3-0.3l-0.4-5.3c0-0.1-0.1-0.2-0.2-0.2
			l-16.5,1.3c-0.2,0-0.3-0.1-0.3-0.3L336.3,185z"/>
	</g>
	<g id="mullvad-vpn">
		<path class="text" d="M103.8,295.9c0.1-0.2,0.3-0.2,0.5,0l3.3,2.8c0.2,0.2,0.3,0.4,0.2,0.7l-4.3,14.8l0.1,0.1l13.8-6.8
			c0.2-0.1,0.5-0.1,0.7,0.1l3.2,2.7c0.2,0.1,0.2,0.3,0,0.5l-15.5,18.3c-0.1,0.2-0.3,0.2-0.5,0l-3.1-2.7c-0.2-0.1-0.2-0.3,0-0.5
			l9-10.6l-0.1-0.1l-10.2,5c-0.3,0.2-0.6,0.1-0.8-0.1l-1.9-1.6c-0.2-0.2-0.3-0.5-0.2-0.8l3.2-10.9l-0.1-0.1l-9,10.6
			c-0.1,0.2-0.3,0.2-0.5,0l-3.1-2.7c-0.2-0.1-0.2-0.3,0-0.5L103.8,295.9z"/>
		<path class="text" d="M116.4,325.7l7.7-13.2c0.1-0.2,0.3-0.2,0.5-0.1l4,2.3c0.2,0.1,0.2,0.3,0.1,0.5l-7.7,13.3
			c-1.5,2.5-0.9,4.8,1.3,6.1c2.1,1.2,4.4,0.6,5.9-1.9l7.7-13.3c0.1-0.2,0.3-0.2,0.5-0.1l4,2.3c0.2,0.1,0.2,0.3,0.1,0.5l-7.7,13.2
			c-3.1,5.3-8.2,6.2-12.9,3.5C115.1,335.9,113.3,331,116.4,325.7z"/>
		<path class="text" d="M143.6,323.3c0.1-0.2,0.3-0.3,0.5-0.2l4.3,1.7c0.2,0.1,0.3,0.3,0.2,0.5l-7.1,18.1c-0.1,0.1,0,0.2,0.1,0.3
			l10.2,4c0.2,0.1,0.3,0.3,0.2,0.5l-1.5,3.8c-0.1,0.2-0.3,0.3-0.5,0.2l-15-5.9c-0.2-0.1-0.3-0.3-0.2-0.5L143.6,323.3z"/>
		<path class="text" d="M161.2,329.9c0.1-0.2,0.2-0.3,0.4-0.3l4.5,1.1c0.2,0.1,0.3,0.2,0.3,0.4l-4.5,18.9c0,0.1,0,0.2,0.2,0.3
			l10.6,2.5c0.2,0.1,0.3,0.2,0.3,0.4l-0.9,3.9c-0.1,0.2-0.2,0.3-0.4,0.3l-15.7-3.7c-0.2-0.1-0.3-0.2-0.3-0.4L161.2,329.9z"/>
		<path class="text" d="M180.8,358.6c-0.3,0-0.4-0.2-0.4-0.4l-5.3-24.7c0-0.3,0.1-0.4,0.4-0.4l4.7,0.5c0.3,0,0.4,0.2,0.4,0.4
			l3.2,16.7h0.1l6.5-15.6c0.1-0.2,0.3-0.3,0.5-0.3l4.7,0.5c0.2,0,0.3,0.2,0.2,0.4l-10.4,23c-0.1,0.2-0.3,0.3-0.5,0.3L180.8,358.6z"
			/>
		<path class="text" d="M202.5,335.3c0.1-0.2,0.2-0.4,0.5-0.4l4.6-0.2c0.3,0,0.4,0.1,0.5,0.3l9.2,23.7c0.1,0.2,0,0.4-0.2,0.4
			l-4.7,0.2c-0.3,0-0.4-0.1-0.5-0.3l-1.6-4.3l-8.7,0.3l-1.2,4.4c-0.1,0.3-0.2,0.4-0.5,0.4l-4.8,0.2c-0.3,0-0.3-0.1-0.3-0.4
			L202.5,335.3z M208.6,350.3l-3.1-8.5h-0.1l-2.5,8.8L208.6,350.3z"/>
		<path class="text" d="M217.9,334.5c0-0.2,0.1-0.4,0.3-0.4l9-1.8c4.2-0.8,7.6,0.4,9.5,3.8c0.7,1.3,1.2,2.6,2,6.5s0.8,5.4,0.7,6.8
			c-0.5,3.9-3,6.3-7.3,7.1l-9,1.8c-0.2,0-0.4-0.1-0.4-0.3L217.9,334.5z M227.2,352.6l2.7-0.5c2.4-0.5,3.7-1.5,4-3.6
			c0.1-0.8,0.1-1.7-0.6-4.9c-0.6-3.1-1-4-1.3-4.7c-1-1.8-2.6-2.3-5-1.8l-2.7,0.5c-0.1,0-0.2,0.1-0.2,0.3l2.9,14.5
			C227,352.6,227.1,352.7,227.2,352.6z"/>
		<path class="text" d="M261.2,347.6c-0.2,0.1-0.4,0-0.6-0.1l-16.7-18.9c-0.2-0.2-0.1-0.4,0.1-0.5l4.3-1.9c0.2-0.1,0.4-0.1,0.6,0.1
			l10.9,13h0.1l-2-16.8c0-0.3,0.1-0.4,0.3-0.5l4.3-1.9c0.2-0.1,0.4,0,0.4,0.3l2.2,25.1c0,0.2-0.1,0.4-0.3,0.5L261.2,347.6z"/>
		<path class="text" d="M277.6,340c-0.2,0.1-0.4,0.1-0.5-0.1l-12.7-20.4c-0.1-0.2-0.1-0.4,0.1-0.5l8.1-5.1c4.6-2.8,9-1.8,11.5,2.2
			s1.4,8.5-3.1,11.3l-3.7,2.3c-0.1,0.1-0.1,0.2-0.1,0.3l4.4,7c0.1,0.2,0.1,0.4-0.1,0.5L277.6,340z M279.6,318.9
			c-1.1-1.7-2.9-2.1-4.8-0.9l-3.5,2.2c-0.1,0.1-0.1,0.2-0.1,0.3l3.3,5.3c0.1,0.1,0.2,0.1,0.3,0.1l3.5-2.2
			C280.3,322.5,280.7,320.6,279.6,318.9z"/>
		<path class="text" d="M281.8,308.4c-0.1-0.2-0.1-0.4,0-0.5l3.3-2.9c0.2-0.2,0.4-0.2,0.7-0.1l16.8,6l0.1-0.1l-10.2-11.7
			c-0.1-0.2-0.1-0.4,0-0.5l3.1-2.7c0.2-0.1,0.4-0.1,0.5,0l15.8,18.1c0.1,0.2,0.1,0.4,0,0.5l-3.3,2.8c-0.2,0.2-0.4,0.2-0.7,0.1
			l-16.8-6l-0.1,0.1l10.2,11.7c0.1,0.2,0.1,0.4,0,0.5l-3.1,2.7c-0.2,0.1-0.4,0.1-0.5,0L281.8,308.4z"/>
	</g>
</g>
</svg>
