<?xml version="1.0" encoding="UTF-8" standalone="no"?>
<!-- Created with Inkscape (http://www.inkscape.org/) -->

<svg
   xmlns:i="http://ns.adobe.com/AdobeIllustrator/10.0/"
   xmlns:dc="http://purl.org/dc/elements/1.1/"
   xmlns:cc="http://creativecommons.org/ns#"
   xmlns:rdf="http://www.w3.org/1999/02/22-rdf-syntax-ns#"
   xmlns:svg="http://www.w3.org/2000/svg"
   xmlns="http://www.w3.org/2000/svg"
   xmlns:sodipodi="http://sodipodi.sourceforge.net/DTD/sodipodi-0.dtd"
   xmlns:inkscape="http://www.inkscape.org/namespaces/inkscape"
   width="250"
   height="125"
   viewBox="0 0 250 125"
   id="svg5444"
   version="1.1"
   inkscape:version="0.91 r13725"
   inkscape:export-filename="/home/user/Designs/QubesOS/website/assets/OS-logos.png"
   inkscape:export-xdpi="90"
   inkscape:export-ydpi="90"
   sodipodi:docname="OS-logos.svg">
  <defs
     id="defs5446" />
  <sodipodi:namedview
     id="base"
     pagecolor="#ffffff"
     bordercolor="#666666"
     borderopacity="1.0"
     inkscape:pageopacity="0.0"
     inkscape:pageshadow="2"
     inkscape:zoom="2.1812242"
     inkscape:cx="91.510278"
     inkscape:cy="109.63"
     inkscape:document-units="px"
     inkscape:current-layer="text6745-6-5-40-8"
     showgrid="false"
     units="px"
     inkscape:window-width="1392"
     inkscape:window-height="940"
     inkscape:window-x="73"
     inkscape:window-y="74"
     inkscape:window-maximized="0" />
  <metadata
     id="metadata5449">
    <rdf:RDF>
      <cc:Work
         rdf:about="">
        <dc:format>image/svg+xml</dc:format>
        <dc:type
           rdf:resource="http://purl.org/dc/dcmitype/StillImage" />
        <dc:title />
      </cc:Work>
    </rdf:RDF>
  </metadata>
  <g
     inkscape:label="Layer 1"
     inkscape:groupmode="layer"
     id="layer1"
     transform="translate(0,-927.36216)">
    <g
       style="font-style:normal;font-variant:normal;font-weight:600;font-stretch:normal;font-size:31.09641266px;line-height:125%;font-family:'Open Sans';-inkscape-font-specification:'Open Sans Semi-Bold';text-align:center;letter-spacing:0px;word-spacing:0px;text-anchor:middle;fill:#8a8a8a;fill-opacity:1;stroke:none;stroke-width:1px;stroke-linecap:butt;stroke-linejoin:miter;stroke-opacity:1"
       id="text6745-6-5-40-8">
      <path
         d="m 52.218041,1016.6135 0,7.182 q 0,1.2299 -0.531433,2.1561 -0.52384,0.9186 -1.525971,1.4197 -0.994539,0.4934 -2.383856,0.4934 -2.064996,0 -3.211372,-1.0932 -1.146377,-1.0932 -1.146377,-3.0064 l 0,-7.1516 1.822055,0 0,7.0225 q 0,1.3742 0.63772,2.0271 0.637719,0.6529 1.958709,0.6529 2.566062,0 2.566062,-2.6951 l 0,-7.0074 1.814463,0 z"
         style="font-style:normal;font-variant:normal;font-weight:600;font-stretch:normal;font-size:15.54820633px;font-family:'Open Sans';-inkscape-font-specification:'Open Sans Semi-Bold';fill:#8a8a8a;fill-opacity:1"
         id="path4160" />
      <path
         d="m 60.508393,1025.3214 q 0,1.2299 -0.895843,1.8904 -0.895844,0.6529 -2.566062,0.6529 -1.677809,0 -2.695124,-0.5086 l 0,-1.5412 q 1.48042,0.6833 2.755859,0.6833 1.647442,0 1.647442,-0.9946 0,-0.3188 -0.182205,-0.5314 -0.182206,-0.2126 -0.59976,-0.4403 -0.417555,-0.2278 -1.161561,-0.5163 -1.450052,-0.5618 -1.966301,-1.1236 -0.508657,-0.5618 -0.508657,-1.4576 0,-1.0781 0.865476,-1.6702 0.873068,-0.5998 2.368672,-0.5998 1.48042,0 2.80141,0.5998 l -0.576984,1.3437 q -1.35895,-0.5618 -2.285161,-0.5618 -1.412093,0 -1.412093,0.8048 0,0.3948 0.364411,0.6681 0.372003,0.2733 1.609482,0.7516 1.04009,0.4023 1.510788,0.7364 0.470698,0.334 0.698454,0.7744 0.227757,0.4327 0.227757,1.04 z"
         style="font-style:normal;font-variant:normal;font-weight:600;font-stretch:normal;font-size:15.54820633px;font-family:'Open Sans';-inkscape-font-specification:'Open Sans Semi-Bold';fill:#8a8a8a;fill-opacity:1"
         id="path4162" />
      <path
         d="m 66.096031,1027.8647 q -1.958709,0 -3.067127,-1.1388 -1.100825,-1.1463 -1.100825,-3.1506 0,-2.0574 1.024906,-3.2341 1.024907,-1.1768 2.816595,-1.1768 1.662625,0 2.626796,1.0097 0.964171,1.0098 0.964171,2.7787 l 0,0.9641 -5.595228,0 q 0.03796,1.2223 0.660495,1.8828 0.622535,0.6529 1.753728,0.6529 0.744006,0 1.381725,-0.1366 0.645312,-0.1443 1.381726,-0.4707 l 0,1.45 q -0.652903,0.3113 -1.32099,0.4404 -0.668087,0.129 -1.525972,0.129 z m -0.326451,-7.3489 q -0.850293,0 -1.366542,0.539 -0.508657,0.539 -0.607352,1.5715 l 3.811133,0 q -0.01518,-1.0401 -0.501066,-1.5715 -0.485881,-0.539 -1.336173,-0.539 z"
         style="font-style:normal;font-variant:normal;font-weight:600;font-stretch:normal;font-size:15.54820633px;font-family:'Open Sans';-inkscape-font-specification:'Open Sans Semi-Bold';fill:#8a8a8a;fill-opacity:1"
         id="path4164" />
      <path
         d="m 77.415548,1027.7129 -1.79928,0 0,-11.0994 6.263315,0 0,1.5336 -4.464035,0 0,3.4695 4.183135,0 0,1.5412 -4.183135,0 0,4.5551 z"
         style="font-style:normal;font-variant:normal;font-weight:600;font-stretch:normal;font-size:15.54820633px;font-family:'Open Sans';-inkscape-font-specification:'Open Sans Semi-Bold';fill:#8a8a8a;fill-opacity:1"
         id="path4166" />
      <path
         d="m 87.383709,1027.8647 q -1.95871,0 -3.067127,-1.1388 -1.100825,-1.1463 -1.100825,-3.1506 0,-2.0574 1.024906,-3.2341 1.024906,-1.1768 2.816594,-1.1768 1.662626,0 2.626797,1.0097 0.964171,1.0098 0.964171,2.7787 l 0,0.9641 -5.595229,0 q 0.03796,1.2223 0.660495,1.8828 0.622536,0.6529 1.753729,0.6529 0.744006,0 1.381725,-0.1366 0.645311,-0.1443 1.381725,-0.4707 l 0,1.45 q -0.652903,0.3113 -1.32099,0.4404 -0.668087,0.129 -1.525971,0.129 z m -0.326452,-7.3489 q -0.850292,0 -1.366541,0.539 -0.508657,0.539 -0.607352,1.5715 l 3.811133,0 q -0.01518,-1.0401 -0.501066,-1.5715 -0.485881,-0.539 -1.336174,-0.539 z"
         style="font-style:normal;font-variant:normal;font-weight:600;font-stretch:normal;font-size:15.54820633px;font-family:'Open Sans';-inkscape-font-specification:'Open Sans Semi-Bold';fill:#8a8a8a;fill-opacity:1"
         id="path4168" />
      <path
         d="m 95.507039,1027.8647 q -1.571523,0 -2.452183,-1.1388 -0.88066,-1.1387 -0.88066,-3.1961 0,-2.065 0.888252,-3.2114 0.895844,-1.154 2.474959,-1.154 1.655033,0 2.52051,1.2223 l 0.0911,0 q -0.129062,-0.9034 -0.129062,-1.4273 l 0,-3.0595 1.791688,0 0,11.813 -1.396909,0 -0.311268,-1.1008 -0.08351,0 q -0.857884,1.2526 -2.512918,1.2526 z m 0.47829,-1.4424 q 1.100825,0 1.60189,-0.615 0.501065,-0.6225 0.516249,-2.0118 l 0,-0.2506 q 0,-1.5867 -0.516249,-2.2548 -0.516249,-0.668 -1.617074,-0.668 -0.941396,0 -1.450053,0.7667 -0.508657,0.7592 -0.508657,2.1713 0,1.3969 0.493474,2.1333 0.493473,0.7289 1.48042,0.7289 z"
         style="font-style:normal;font-variant:normal;font-weight:600;font-stretch:normal;font-size:15.54820633px;font-family:'Open Sans';-inkscape-font-specification:'Open Sans Semi-Bold';fill:#8a8a8a;fill-opacity:1"
         id="path4170" />
      <path
         d="m 109.81018,1023.4994 q 0,2.0574 -1.05528,3.2114 -1.05527,1.1539 -2.93806,1.1539 -1.17675,0 -2.08018,-0.5314 -0.90344,-0.5314 -1.38932,-1.526 -0.48588,-0.9945 -0.48588,-2.3079 0,-2.0422 1.04768,-3.1886 1.04768,-1.1464 2.95325,-1.1464 1.82205,0 2.88492,1.1768 1.06287,1.1691 1.06287,3.1582 z m -6.11148,0 q 0,2.9077 2.14851,2.9077 2.12573,0 2.12573,-2.9077 0,-2.8773 -2.14092,-2.8773 -1.1236,0 -1.63226,0.744 -0.50106,0.744 -0.50106,2.1333 z"
         style="font-style:normal;font-variant:normal;font-weight:600;font-stretch:normal;font-size:15.54820633px;font-family:'Open Sans';-inkscape-font-specification:'Open Sans Semi-Bold';fill:#8a8a8a;fill-opacity:1"
         id="path4172" />
      <path
         d="m 116.12663,1019.1644 q 0.53903,0 0.88826,0.076 l -0.17462,1.6627 q -0.37959,-0.091 -0.78956,-0.091 -1.07045,0 -1.73854,0.6984 -0.66049,0.6985 -0.66049,1.8145 l 0,4.3881 -1.7841,0 0,-8.3966 1.39691,0 0.23535,1.4804 0.0911,0 q 0.41755,-0.7516 1.08564,-1.192 0.67568,-0.4403 1.45005,-0.4403 z"
         style="font-style:normal;font-variant:normal;font-weight:600;font-stretch:normal;font-size:15.54820633px;font-family:'Open Sans';-inkscape-font-specification:'Open Sans Semi-Bold';fill:#8a8a8a;fill-opacity:1"
         id="path4174" />
      <path
         d="m 123.83241,1027.7129 -0.35682,-1.1692 -0.0607,0 q -0.60735,0.7668 -1.22229,1.0477 -0.61495,0.2733 -1.57912,0.2733 -1.23748,0 -1.93593,-0.6681 -0.69086,-0.668 -0.69086,-1.8903 0,-1.2983 0.96417,-1.9588 0.96417,-0.6604 2.93806,-0.7212 l 1.45005,-0.046 0,-0.448 q 0,-0.8047 -0.37959,-1.1995 -0.372,-0.4023 -1.16156,-0.4023 -0.64531,0 -1.23748,0.1898 -0.59217,0.1898 -1.13879,0.4479 l -0.57698,-1.2755 q 0.68327,-0.3568 1.4956,-0.539 0.81234,-0.1898 1.53357,-0.1898 1.60189,0 2.41422,0.6985 0.81993,0.6984 0.81993,2.194 l 0,5.656 -1.27544,0 z m -2.65717,-1.2147 q 0.97177,0 1.55634,-0.539 0.59217,-0.5467 0.59217,-1.526 l 0,-0.7288 -1.07805,0.046 q -1.26025,0.046 -1.83724,0.4252 -0.56939,0.372 -0.56939,1.1463 0,0.5618 0.33404,0.8731 0.33405,0.3037 1.00213,0.3037 z"
         style="font-style:normal;font-variant:normal;font-weight:600;font-stretch:normal;font-size:15.54820633px;font-family:'Open Sans';-inkscape-font-specification:'Open Sans Semi-Bold';fill:#8a8a8a;fill-opacity:1"
         id="path4176" />
      <path
         d="m 129.45042,1026.0806 q -0.36441,1.4121 -1.33618,3.6366 l -1.31339,0 q 0.52384,-2.0499 0.78196,-3.8112 l 1.75373,0 0.11388,0.1746 z"
         style="font-style:normal;font-variant:normal;font-weight:600;font-stretch:normal;font-size:15.54820633px;font-family:'Open Sans';-inkscape-font-specification:'Open Sans Semi-Bold';fill:#8a8a8a;fill-opacity:1"
         id="path4178" />
      <path
         d="m 145.01381,1022.0569 q 0,2.7483 -1.52597,4.2059 -1.52598,1.4501 -4.39571,1.4501 l -3.10509,0 0,-11.0994 3.43154,0 q 2.64957,0 4.1224,1.4273 1.47283,1.4273 1.47283,4.0161 z m -1.91316,0.061 q 0,-3.9858 -3.72762,-3.9858 l -1.57153,0 0,8.055 1.29063,0 q 4.00852,0 4.00852,-4.0692 z"
         style="font-style:normal;font-variant:normal;font-weight:600;font-stretch:normal;font-size:15.54820633px;font-family:'Open Sans';-inkscape-font-specification:'Open Sans Semi-Bold';fill:#8a8a8a;fill-opacity:1"
         id="path4180" />
      <path
         d="m 150.88234,1027.8647 q -1.95871,0 -3.06712,-1.1388 -1.10083,-1.1463 -1.10083,-3.1506 0,-2.0574 1.02491,-3.2341 1.0249,-1.1768 2.81659,-1.1768 1.66263,0 2.6268,1.0097 0.96417,1.0098 0.96417,2.7787 l 0,0.9641 -5.59523,0 q 0.038,1.2223 0.6605,1.8828 0.62253,0.6529 1.75372,0.6529 0.74401,0 1.38173,-0.1366 0.64531,-0.1443 1.38172,-0.4707 l 0,1.45 q -0.6529,0.3113 -1.32099,0.4404 -0.66808,0.129 -1.52597,0.129 z m -0.32645,-7.3489 q -0.85029,0 -1.36654,0.539 -0.50866,0.539 -0.60735,1.5715 l 3.81113,0 q -0.0152,-1.0401 -0.50106,-1.5715 -0.48589,-0.539 -1.33618,-0.539 z"
         style="font-style:normal;font-variant:normal;font-weight:600;font-stretch:normal;font-size:15.54820633px;font-family:'Open Sans';-inkscape-font-specification:'Open Sans Semi-Bold';fill:#8a8a8a;fill-opacity:1"
         id="path4182" />
      <path
         d="m 160.46331,1019.1644 q 1.57153,0 2.44459,1.1388 0.88067,1.1388 0.88067,3.1962 0,2.065 -0.88826,3.219 -0.88825,1.1463 -2.46736,1.1463 -1.5943,0 -2.47496,-1.1463 l -0.12147,0 -0.32645,0.9945 -1.33618,0 0,-11.813 1.7841,0 0,2.809 q 0,0.3113 -0.0304,0.9262 -0.0304,0.615 -0.0455,0.782 l 0.0759,0 q 0.85029,-1.2527 2.50532,-1.2527 z m -0.4631,1.4577 q -1.07805,0 -1.55634,0.6377 -0.4707,0.6301 -0.48588,2.1181 l 0,0.1215 q 0,1.5336 0.48588,2.2244 0.48588,0.6833 1.58671,0.6833 0.94898,0 1.43486,-0.7516 0.49348,-0.7516 0.49348,-2.1713 0,-2.8621 -1.95871,-2.8621 z"
         style="font-style:normal;font-variant:normal;font-weight:600;font-stretch:normal;font-size:15.54820633px;font-family:'Open Sans';-inkscape-font-specification:'Open Sans Semi-Bold';fill:#8a8a8a;fill-opacity:1"
         id="path4184" />
      <path
         d="m 167.64525,1027.7129 -1.78409,0 0,-8.3966 1.78409,0 0,8.3966 z m -1.89038,-10.6211 q 0,-0.4783 0.25812,-0.7364 0.26572,-0.2581 0.7516,-0.2581 0.4707,0 0.72882,0.2581 0.26572,0.2581 0.26572,0.7364 0,0.4555 -0.26572,0.7213 -0.25812,0.2581 -0.72882,0.2581 -0.48588,0 -0.7516,-0.2581 -0.25812,-0.2658 -0.25812,-0.7213 z"
         style="font-style:normal;font-variant:normal;font-weight:600;font-stretch:normal;font-size:15.54820633px;font-family:'Open Sans';-inkscape-font-specification:'Open Sans Semi-Bold';fill:#8a8a8a;fill-opacity:1"
         id="path4186" />
      <path
         d="m 175.45732,1027.7129 -0.35682,-1.1692 -0.0607,0 q -0.60735,0.7668 -1.22229,1.0477 -0.61495,0.2733 -1.57912,0.2733 -1.23748,0 -1.93593,-0.6681 -0.69087,-0.668 -0.69087,-1.8903 0,-1.2983 0.96418,-1.9588 0.96417,-0.6604 2.93806,-0.7212 l 1.45005,-0.046 0,-0.448 q 0,-0.8047 -0.37959,-1.1995 -0.37201,-0.4023 -1.16156,-0.4023 -0.64531,0 -1.23748,0.1898 -0.59217,0.1898 -1.13879,0.4479 l -0.57698,-1.2755 q 0.68327,-0.3568 1.4956,-0.539 0.81234,-0.1898 1.53357,-0.1898 1.60189,0 2.41422,0.6985 0.81992,0.6984 0.81992,2.194 l 0,5.656 -1.27543,0 z m -2.65717,-1.2147 q 0.97176,0 1.55634,-0.539 0.59217,-0.5467 0.59217,-1.526 l 0,-0.7288 -1.07805,0.046 q -1.26026,0.046 -1.83724,0.4252 -0.56939,0.372 -0.56939,1.1463 0,0.5618 0.33404,0.8731 0.33404,0.3037 1.00213,0.3037 z"
         style="font-style:normal;font-variant:normal;font-weight:600;font-stretch:normal;font-size:15.54820633px;font-family:'Open Sans';-inkscape-font-specification:'Open Sans Semi-Bold';fill:#8a8a8a;fill-opacity:1"
         id="path4188" />
      <path
         d="m 186.6098,1027.7129 -1.79168,0 0,-5.1625 q 0,-0.9718 -0.39478,-1.4501 -0.38719,-0.4782 -1.23748,-0.4782 -1.13119,0 -1.65504,0.668 -0.52384,0.6681 -0.52384,2.2397 l 0,4.1831 -1.78409,0 0,-8.3966 1.39691,0 0.25053,1.1008 0.0911,0 q 0.3796,-0.5998 1.07805,-0.9262 0.69846,-0.3265 1.54875,-0.3265 3.02157,0 3.02157,3.0747 l 0,5.4738 z"
         style="font-style:normal;font-variant:normal;font-weight:600;font-stretch:normal;font-size:15.54820633px;font-family:'Open Sans';-inkscape-font-specification:'Open Sans Semi-Bold';fill:#8a8a8a;fill-opacity:1"
         id="path4190" />
      <path
         d="m 190.94479,1026.0806 q -0.36441,1.4121 -1.33618,3.6366 l -1.3134,0 q 0.52385,-2.0499 0.78197,-3.8112 l 1.75373,0 0.11388,0.1746 z"
         style="font-style:normal;font-variant:normal;font-weight:600;font-stretch:normal;font-size:15.54820633px;font-family:'Open Sans';-inkscape-font-specification:'Open Sans Semi-Bold';fill:#8a8a8a;fill-opacity:1"
         id="path4192" />
      <path
         d="m 204.73926,1023.4994 q 0,2.0574 -1.05527,3.2114 -1.05527,1.1539 -2.93806,1.1539 -1.17675,0 -2.08018,-0.5314 -0.90344,-0.5314 -1.38932,-1.526 -0.48588,-0.9945 -0.48588,-2.3079 0,-2.0422 1.04768,-3.1886 1.04768,-1.1464 2.95325,-1.1464 1.82205,0 2.88492,1.1768 1.06286,1.1691 1.06286,3.1582 z m -6.11147,0 q 0,2.9077 2.1485,2.9077 2.12574,0 2.12574,-2.9077 0,-2.8773 -2.14092,-2.8773 -1.1236,0 -1.63226,0.744 -0.50106,0.744 -0.50106,2.1333 z"
         style="font-style:normal;font-variant:normal;font-weight:600;font-stretch:normal;font-size:15.54820633px;font-family:'Open Sans';-inkscape-font-specification:'Open Sans Semi-Bold';fill:#8a8a8a;fill-opacity:1"
         id="path4194" />
      <path
         d="m 211.05572,1019.1644 q 0.53902,0 0.88825,0.076 l -0.17461,1.6627 q -0.3796,-0.091 -0.78956,-0.091 -1.07046,0 -1.73855,0.6984 -0.66049,0.6985 -0.66049,1.8145 l 0,4.3881 -1.7841,0 0,-8.3966 1.39691,0 0.23535,1.4804 0.0911,0 q 0.41756,-0.7516 1.08565,-1.192 0.67567,-0.4403 1.45005,-0.4403 z"
         style="font-style:normal;font-variant:normal;font-weight:600;font-stretch:normal;font-size:15.54820633px;font-family:'Open Sans';-inkscape-font-specification:'Open Sans Semi-Bold';fill:#8a8a8a;fill-opacity:1"
         id="path4196" />
      <path
         d="m 77.833104,1047.3 q -1.95871,0 -3.067127,-1.1388 -1.100825,-1.1464 -1.100825,-3.1506 0,-2.0574 1.024906,-3.2342 1.024906,-1.1767 2.816594,-1.1767 1.662626,0 2.626797,1.0097 0.964171,1.0097 0.964171,2.7786 l 0,0.9642 -5.595229,0 q 0.03796,1.2223 0.660495,1.8828 0.622536,0.6529 1.753729,0.6529 0.744006,0 1.381725,-0.1367 0.645311,-0.1442 1.381725,-0.4707 l 0,1.4501 q -0.652903,0.3113 -1.32099,0.4403 -0.668087,0.1291 -1.525971,0.1291 z m -0.326452,-7.349 q -0.850292,0 -1.366541,0.5391 -0.508657,0.539 -0.607352,1.5715 l 3.811133,0 q -0.01518,-1.0401 -0.501066,-1.5715 -0.485881,-0.5391 -1.336174,-0.5391 z"
         style="font-style:normal;font-variant:normal;font-weight:600;font-stretch:normal;font-size:15.54820633px;font-family:'Open Sans';-inkscape-font-specification:'Open Sans Semi-Bold';fill:#8a8a8a;fill-opacity:1"
         id="path4198" />
      <path
         d="m 85.037814,1047.1481 -3.188597,-8.3966 1.882791,0 1.708177,4.8816 q 0.44033,1.2299 0.531433,1.9891 l 0.06073,0 q 0.06833,-0.5466 0.531433,-1.9891 l 1.708177,-4.8816 1.897974,0 -3.203781,8.3966 -1.928342,0 z"
         style="font-style:normal;font-variant:normal;font-weight:600;font-stretch:normal;font-size:15.54820633px;font-family:'Open Sans';-inkscape-font-specification:'Open Sans Semi-Bold';fill:#8a8a8a;fill-opacity:1"
         id="path4200" />
      <path
         d="m 95.112263,1047.3 q -1.958709,0 -3.067126,-1.1388 -1.100825,-1.1464 -1.100825,-3.1506 0,-2.0574 1.024906,-3.2342 1.024906,-1.1767 2.816594,-1.1767 1.662625,0 2.626796,1.0097 0.964171,1.0097 0.964171,2.7786 l 0,0.9642 -5.595228,0 q 0.03796,1.2223 0.660495,1.8828 0.622536,0.6529 1.753728,0.6529 0.744006,0 1.381726,-0.1367 0.645311,-0.1442 1.381725,-0.4707 l 0,1.4501 q -0.652903,0.3113 -1.32099,0.4403 -0.668087,0.1291 -1.525972,0.1291 z m -0.326451,-7.349 q -0.850293,0 -1.366542,0.5391 -0.508657,0.539 -0.607352,1.5715 l 3.811133,0 q -0.01518,-1.0401 -0.501065,-1.5715 -0.485882,-0.5391 -1.336174,-0.5391 z"
         style="font-style:normal;font-variant:normal;font-weight:600;font-stretch:normal;font-size:15.54820633px;font-family:'Open Sans';-inkscape-font-specification:'Open Sans Semi-Bold';fill:#8a8a8a;fill-opacity:1"
         id="path4202" />
      <path
         d="m 107.79073,1047.1481 -1.79169,0 0,-5.1624 q 0,-0.9718 -0.39477,-1.4501 -0.38719,-0.4783 -1.23748,-0.4783 -1.1312,0 -1.65504,0.6681 -0.52384,0.6681 -0.52384,2.2396 l 0,4.1831 -1.78409,0 0,-8.3966 1.3969,0 0.25054,1.1008 0.0911,0 q 0.3796,-0.5997 1.07805,-0.9262 0.69845,-0.3264 1.54875,-0.3264 3.02157,0 3.02157,3.0747 l 0,5.4737 z"
         style="font-style:normal;font-variant:normal;font-weight:600;font-stretch:normal;font-size:15.54820633px;font-family:'Open Sans';-inkscape-font-specification:'Open Sans Semi-Bold';fill:#8a8a8a;fill-opacity:1"
         id="path4204" />
      <path
         d="m 124.74344,1047.1481 -1.97389,0 -1.8828,-6.6201 q -0.12147,-0.4327 -0.30367,-1.2451 -0.18221,-0.8199 -0.22017,-1.1387 -0.0759,0.4858 -0.25053,1.2602 -0.16702,0.7744 -0.2809,1.154 l -1.83724,6.5897 -1.97389,0 -1.43487,-5.5572 -1.45764,-5.5421 1.85242,0 1.58671,6.4683 q 0.372,1.5563 0.53143,2.7483 0.0835,-0.6454 0.25053,-1.4425 0.16702,-0.7972 0.30368,-1.2906 l 1.80687,-6.4835 1.79928,0 1.85242,6.5138 q 0.26572,0.9035 0.5618,2.7028 0.11388,-1.0857 0.54662,-2.7635 l 1.57911,-6.4531 1.83724,0 -2.89251,11.0993 z"
         style="font-style:normal;font-variant:normal;font-weight:600;font-stretch:normal;font-size:15.54820633px;font-family:'Open Sans';-inkscape-font-specification:'Open Sans Semi-Bold';fill:#8a8a8a;fill-opacity:1"
         id="path4206" />
      <path
         d="m 130.79418,1047.1481 -1.78409,0 0,-8.3966 1.78409,0 0,8.3966 z m -1.89038,-10.621 q 0,-0.4783 0.25812,-0.7364 0.26572,-0.2582 0.7516,-0.2582 0.4707,0 0.72882,0.2582 0.26572,0.2581 0.26572,0.7364 0,0.4555 -0.26572,0.7212 -0.25812,0.2581 -0.72882,0.2581 -0.48588,0 -0.7516,-0.2581 -0.25812,-0.2657 -0.25812,-0.7212 z"
         style="font-style:normal;font-variant:normal;font-weight:600;font-stretch:normal;font-size:15.54820633px;font-family:'Open Sans';-inkscape-font-specification:'Open Sans Semi-Bold';fill:#8a8a8a;fill-opacity:1"
         id="path4208" />
      <path
         d="m 140.73957,1047.1481 -1.79169,0 0,-5.1624 q 0,-0.9718 -0.39478,-1.4501 -0.38719,-0.4783 -1.23748,-0.4783 -1.13119,0 -1.65503,0.6681 -0.52384,0.6681 -0.52384,2.2396 l 0,4.1831 -1.7841,0 0,-8.3966 1.39691,0 0.25053,1.1008 0.0911,0 q 0.3796,-0.5997 1.07805,-0.9262 0.69846,-0.3264 1.54875,-0.3264 3.02158,0 3.02158,3.0747 l 0,5.4737 z"
         style="font-style:normal;font-variant:normal;font-weight:600;font-stretch:normal;font-size:15.54820633px;font-family:'Open Sans';-inkscape-font-specification:'Open Sans Semi-Bold';fill:#8a8a8a;fill-opacity:1"
         id="path4210" />
      <path
         d="m 146.0539,1047.3 q -1.57153,0 -2.45219,-1.1388 -0.88066,-1.1388 -0.88066,-3.1962 0,-2.065 0.88825,-3.2114 0.89585,-1.1539 2.47496,-1.1539 1.65504,0 2.52051,1.2223 l 0.0911,0 q -0.12907,-0.9035 -0.12907,-1.4273 l 0,-3.0595 1.79169,0 0,11.8129 -1.39691,0 -0.31127,-1.1008 -0.0835,0 q -0.85788,1.2527 -2.51291,1.2527 z m 0.47829,-1.4425 q 1.10082,0 1.60189,-0.6149 0.50106,-0.6226 0.51624,-2.0119 l 0,-0.2505 q 0,-1.5867 -0.51624,-2.2548 -0.51625,-0.6681 -1.61708,-0.6681 -0.94139,0 -1.45005,0.7668 -0.50866,0.7592 -0.50866,2.1713 0,1.3969 0.49348,2.1333 0.49347,0.7288 1.48042,0.7288 z"
         style="font-style:normal;font-variant:normal;font-weight:600;font-stretch:normal;font-size:15.54820633px;font-family:'Open Sans';-inkscape-font-specification:'Open Sans Semi-Bold';fill:#8a8a8a;fill-opacity:1"
         id="path4212" />
      <path
         d="m 160.35703,1042.9346 q 0,2.0574 -1.05527,3.2114 -1.05527,1.154 -2.93807,1.154 -1.17674,0 -2.08018,-0.5314 -0.90343,-0.5315 -1.38931,-1.526 -0.48588,-0.9946 -0.48588,-2.308 0,-2.0422 1.04768,-3.1886 1.04768,-1.1463 2.95325,-1.1463 1.82205,0 2.88492,1.1767 1.06286,1.1692 1.06286,3.1582 z m -6.11147,0 q 0,2.9077 2.1485,2.9077 2.12573,0 2.12573,-2.9077 0,-2.8773 -2.14091,-2.8773 -1.1236,0 -1.63226,0.744 -0.50106,0.744 -0.50106,2.1333 z"
         style="font-style:normal;font-variant:normal;font-weight:600;font-stretch:normal;font-size:15.54820633px;font-family:'Open Sans';-inkscape-font-specification:'Open Sans Semi-Bold';fill:#8a8a8a;fill-opacity:1"
         id="path4214" />
      <path
         d="m 169.30028,1047.1481 -1.08564,-3.9174 q -0.19739,-0.6225 -0.71364,-2.8925 l -0.0683,0 q -0.44033,2.0498 -0.69846,2.9077 l -1.11601,3.9022 -1.97389,0 -2.35349,-8.3966 1.82206,0 1.07045,4.1376 q 0.36442,1.5336 0.51625,2.6268 l 0.0455,0 q 0.0759,-0.5542 0.22776,-1.2679 0.15943,-0.7212 0.27331,-1.078 l 1.27544,-4.4185 1.95871,0 1.23748,4.4185 q 0.11388,0.372 0.2809,1.1388 0.17461,0.7668 0.20498,1.1919 l 0.0607,0 q 0.11388,-0.9338 0.53144,-2.6116 l 1.08564,-4.1376 1.79169,0 -2.36868,8.3966 -2.00426,0 z"
         style="font-style:normal;font-variant:normal;font-weight:600;font-stretch:normal;font-size:15.54820633px;font-family:'Open Sans';-inkscape-font-specification:'Open Sans Semi-Bold';fill:#8a8a8a;fill-opacity:1"
         id="path4216" />
      <path
         d="m 180.74887,1044.7567 q 0,1.2299 -0.89585,1.8904 -0.89584,0.6529 -2.56606,0.6529 -1.67781,0 -2.69512,-0.5087 l 0,-1.5411 q 1.48042,0.6832 2.75586,0.6832 1.64744,0 1.64744,-0.9945 0,-0.3189 -0.1822,-0.5314 -0.18221,-0.2126 -0.59976,-0.4404 -0.41756,-0.2277 -1.16157,-0.5162 -1.45005,-0.5618 -1.9663,-1.1236 -0.50865,-0.5618 -0.50865,-1.4577 0,-1.078 0.86547,-1.6702 0.87307,-0.5997 2.36867,-0.5997 1.48042,0 2.80141,0.5997 l -0.57698,1.3438 q -1.35895,-0.5618 -2.28516,-0.5618 -1.41209,0 -1.41209,0.8047 0,0.3948 0.36441,0.6681 0.372,0.2733 1.60948,0.7516 1.04009,0.4024 1.51079,0.7364 0.4707,0.3341 0.69845,0.7744 0.22776,0.4327 0.22776,1.0401 z"
         style="font-style:normal;font-variant:normal;font-weight:600;font-stretch:normal;font-size:15.54820633px;font-family:'Open Sans';-inkscape-font-specification:'Open Sans Semi-Bold';fill:#8a8a8a;fill-opacity:1"
         id="path4218" />
    </g>
    <g
       id="g5345"
       transform="matrix(0.99612173,0,0,0.99612173,-214.53804,1607.204)">
      <g
         transform="matrix(0.69380845,0,0,0.69380845,306.7632,-676.18864)"
         i:rgbTrio="#4F008000FFFF"
         i:dimmedPercent="50"
         i:layer="yes"
         id="Layer_1">
        <g
           id="g7">
          <path
             id="path9-99"
             d="m 60.969,47.645 c -1.494,0.02 0.281,0.768 2.232,1.069 0.541,-0.422 1.027,-0.846 1.463,-1.26 -1.213,0.297 -2.449,0.304 -3.695,0.191"
             i:knockout="Off"
             inkscape:connector-curvature="0"
             style="fill:#a80030" />
          <path
             id="path11"
             d="m 68.986,45.646 c 0.893,-1.229 1.541,-2.573 1.77,-3.963 -0.201,0.99 -0.736,1.845 -1.244,2.749 -2.793,1.759 -0.264,-1.044 -0.002,-2.111 -3.002,3.783 -0.414,2.268 -0.524,3.325"
             i:knockout="Off"
             inkscape:connector-curvature="0"
             style="fill:#a80030" />
          <path
             id="path13"
             d="m 71.949,37.942 c 0.182,-2.691 -0.529,-1.839 -0.768,-0.814 0.278,0.146 0.499,1.898 0.768,0.814"
             i:knockout="Off"
             inkscape:connector-curvature="0"
             style="fill:#a80030" />
          <path
             id="path15"
             d="m 55.301,1.163 c 0.798,0.142 1.724,0.252 1.591,0.443 0.876,-0.193 1.073,-0.367 -1.591,-0.443"
             i:knockout="Off"
             inkscape:connector-curvature="0"
             style="fill:#a80030" />
          <path
             id="path17"
             d="M 56.893,1.606 56.332,1.723 56.855,1.675 56.893,1.606"
             i:knockout="Off"
             inkscape:connector-curvature="0"
             style="fill:#a80030" />
          <path
             id="path19"
             d="m 81.762,38.962 c 0.09,2.416 -0.705,3.59 -1.424,5.666 l -1.293,0.643 c -1.057,2.054 0.105,1.304 -0.652,2.937 -1.652,1.467 -5.006,4.589 -6.08,4.875 -0.785,-0.017 0.531,-0.926 0.703,-1.281 -2.209,1.516 -1.773,2.276 -5.152,3.199 L 67.766,54.78 c -8.33,3.92 -19.902,-3.847 -19.75,-14.443 -0.088,0.672 -0.253,0.504 -0.437,0.774 -0.43,-5.451 2.518,-10.926 7.49,-13.165 4.863,-2.406 10.564,-1.42 14.045,1.829 -1.912,-2.506 -5.721,-5.163 -10.232,-4.917 -4.421,0.072 -8.558,2.881 -9.938,5.932 -2.264,1.425 -2.528,5.496 -3.514,6.242 -1.329,9.76 2.497,13.975 8.97,18.936 1.016,0.686 0.286,0.791 0.422,1.313 -2.15,-1.006 -4.118,-2.526 -5.738,-4.387 0.86,1.257 1.787,2.479 2.986,3.439 -2.029,-0.685 -4.738,-4.913 -5.527,-5.085 3.495,6.258 14.178,10.975 19.775,8.634 -2.59,0.096 -5.879,0.053 -8.787,-1.022 -1.225,-0.629 -2.884,-1.93 -2.587,-2.173 7.636,2.851 15.522,2.158 22.128,-3.137 1.682,-1.31 3.518,-3.537 4.049,-3.567 -0.799,1.202 0.137,0.578 -0.477,1.639 1.672,-2.701 -0.729,-1.1 1.73,-4.664 l 0.908,1.25 c -0.34,-2.244 2.785,-4.966 2.467,-8.512 0.717,-1.084 0.799,1.168 0.039,3.662 1.055,-2.767 0.279,-3.212 0.549,-5.496 0.291,0.768 0.678,1.583 0.875,2.394 -0.688,-2.675 0.703,-4.503 1.049,-6.058 -0.342,-0.15 -1.061,1.182 -1.227,-1.976 0.025,-1.372 0.383,-0.719 0.52,-1.057 -0.268,-0.155 -0.975,-1.207 -1.404,-3.224 0.309,-0.475 0.832,1.229 1.256,1.298 -0.273,-1.603 -0.742,-2.826 -0.762,-4.057 -1.24,-2.59 -0.439,0.346 -1.443,-1.112 -1.32,-4.114 1.094,-0.955 1.258,-2.823 1.998,2.895 3.137,7.385 3.662,9.244 -0.4,-2.267 -1.045,-4.464 -1.834,-6.589 0.609,0.257 -0.979,-4.663 0.791,-1.405 C 87.189,15.552 81,9.062 75.305,6.018 76,6.655 76.879,7.455 76.565,7.581 73.731,5.896 74.229,5.763 73.823,5.051 71.518,4.112 71.364,5.128 69.839,5.053 65.489,2.745 64.651,2.99 60.648,1.546 L 60.83,2.398 C 57.949,1.438 57.473,2.76 54.36,2.4 54.171,2.253 55.358,1.864 56.336,1.723 53.55,2.091 53.68,1.173 50.954,1.824 51.625,1.353 52.337,1.04 53.053,0.64 50.782,0.778 47.629,1.962 48.602,0.884 44.897,2.538 38.316,4.859 34.623,8.322 L 34.507,7.546 c -1.692,2.031 -7.379,6.066 -7.832,8.699 l -0.453,0.105 c -0.879,1.491 -1.45,3.18 -2.148,4.713 -1.151,1.963 -1.688,0.756 -1.524,1.064 -2.265,4.592 -3.392,8.45 -4.363,11.616 0.692,1.035 0.017,6.232 0.278,10.391 -1.136,20.544 14.418,40.489 31.42,45.093 2.492,0.893 6.197,0.861 9.349,0.949 -3.718,-1.064 -4.198,-0.563 -7.822,-1.826 -2.613,-1.232 -3.185,-2.637 -5.037,-4.244 l 0.733,1.295 c -3.63,-1.285 -2.111,-1.59 -5.065,-2.525 l 0.783,-1.021 c -1.177,-0.09 -3.117,-1.982 -3.647,-3.033 l -1.288,0.051 c -1.546,-1.906 -2.371,-3.283 -2.31,-4.35 l -0.416,0.742 c -0.471,-0.809 -5.691,-7.158 -2.983,-5.68 -0.503,-0.458 -1.172,-0.747 -1.897,-2.066 l 0.551,-0.629 c -1.301,-1.677 -2.398,-3.826 -2.314,-4.542 0.695,0.938 1.177,1.114 1.655,1.275 -3.291,-8.164 -3.476,-0.449 -5.967,-8.31 l 0.526,-0.042 c -0.403,-0.611 -0.65,-1.27 -0.974,-1.919 l 0.23,-2.285 c -2.368,-2.736 -0.662,-11.645 -0.319,-16.53 0.235,-1.986 1.977,-4.101 3.3,-7.418 l -0.806,-0.138 c 1.542,-2.688 8.802,-10.799 12.166,-10.383 1.629,-2.046 -0.324,-0.008 -0.643,-0.522 3.579,-3.703 4.704,-2.616 7.119,-3.283 2.603,-1.545 -2.235,0.604 -1.001,-0.589 4.503,-1.149 3.19,-2.614 9.063,-3.197 0.62,0.352 -1.437,0.544 -1.953,1.001 3.75,-1.836 11.869,-1.417 17.145,1.018 6.117,2.861 12.994,11.314 13.266,19.267 l 0.309,0.083 c -0.156,3.162 0.484,6.819 -0.627,10.177 l 0.751,-1.591"
             i:knockout="Off"
             inkscape:connector-curvature="0"
             style="fill:#a80030" />
          <path
             id="path21"
             d="m 44.658,49.695 -0.211,1.047 c 0.983,1.335 1.763,2.781 3.016,3.821 -0.902,-1.759 -1.571,-2.486 -2.805,-4.868"
             i:knockout="Off"
             inkscape:connector-curvature="0"
             style="fill:#a80030" />
          <path
             id="path23"
             d="m 46.979,49.605 c -0.52,-0.576 -0.826,-1.268 -1.172,-1.956 0.33,1.211 1.006,2.252 1.633,3.312 l -0.461,-1.356"
             i:knockout="Off"
             inkscape:connector-curvature="0"
             style="fill:#a80030" />
          <path
             id="path25"
             d="m 88.063,40.675 -0.219,0.552 c -0.402,2.858 -1.273,5.686 -2.605,8.309 1.472,-2.767 2.421,-5.794 2.824,-8.861"
             i:knockout="Off"
             inkscape:connector-curvature="0"
             style="fill:#a80030" />
          <path
             id="path27"
             d="M 55.598,0.446 C 56.607,0.077 58.08,0.243 59.154,0 57.756,0.117 56.365,0.187 54.992,0.362 l 0.606,0.084"
             i:knockout="Off"
             inkscape:connector-curvature="0"
             style="fill:#a80030" />
          <path
             id="path29"
             d="m 20.127,19.308 c 0.233,2.154 -1.62,2.991 0.41,1.569 1.09,-2.454 -0.424,-0.677 -0.41,-1.569"
             i:knockout="Off"
             inkscape:connector-curvature="0"
             style="fill:#a80030" />
          <path
             id="path31"
             d="m 17.739,29.282 c 0.469,-1.437 0.553,-2.299 0.732,-3.132 -1.293,1.654 -0.596,2.007 -0.732,3.132"
             i:knockout="Off"
             inkscape:connector-curvature="0"
             style="fill:#a80030" />
        </g>
      </g>
      <g
         inkscape:export-ydpi="29.441677"
         inkscape:export-xdpi="29.441677"
         id="g9775"
         transform="matrix(0.17875941,0,0,0.17875941,177.42481,-694.90564)">
        <g
           id="g9760">
          <path
             style="font-style:normal;font-variant:normal;font-weight:bold;font-stretch:expanded;font-size:11.72808552px;line-height:89.99999762%;font-family:Comfortaa;-inkscape-font-specification:'Comfortaa Bold Expanded';text-align:start;writing-mode:lr-tb;text-anchor:start;fill:#3c6eb4;fill-opacity:1;stroke:none"
             id="path9758"
             d="m 542.54334,419.90285 0,4.61564 c 0,0.30924 -0.18707,0.49631 -0.5612,0.56121 l -0.0401,0 c -0.31687,0 -0.51158,-0.19661 -0.58411,-0.58984 l 0,-7.3186 c 0.0458,-0.42376 0.22524,-0.63564 0.5383,-0.63565 l 0.0859,0 c 0.31687,10e-6 0.52875,0.22525 0.63565,0.67574 l 2.62851,5.87549 c 0.0344,-0.13362 0.61083,-1.47555 1.72944,-4.0258 l 1.0766,-2.31927 c 0.12979,-0.13743 0.27105,-0.20615 0.42377,-0.20616 l 0.0859,0 c 0.31304,10e-6 0.49248,0.21189 0.5383,0.63565 l 0,7.3186 c -0.0725,0.39323 -0.26725,0.58984 -0.58412,0.58984 l -0.0401,0 c -0.37415,-0.0649 -0.56122,-0.25197 -0.56121,-0.56121 l 0,-4.62136 c -1.4202,3.21453 -2.16275,4.87334 -2.22765,4.97641 -0.15653,0.13744 -0.30924,0.20616 -0.45813,0.20616 -0.33596,0 -0.61275,-0.33978 -0.83036,-1.01933 l -1.85542,-4.15752 m -7.79387,-3.39015 5.3601,0 c 0.36268,0.0687 0.54402,0.2558 0.54402,0.56121 l 0,0.0859 c 0,0.31306 -0.21189,0.49249 -0.63565,0.53831 l -1.99286,0 0,6.82038 c 0,0.30924 -0.19089,0.49631 -0.57266,0.5612 l -0.0286,0 c -0.31688,0 -0.51158,-0.1966 -0.58411,-0.58984 l 0,-6.79174 -2.03867,0 c -0.39323,-0.0763 -0.58985,-0.28251 -0.58985,-0.61847 0.084,-0.37796 0.26343,-0.56693 0.53831,-0.56695"
             inkscape:connector-curvature="0" />
          <path
             style="fill:#294172;fill-opacity:1"
             id="path35-0"
             d="m 584.52203,279.71101 c 0,-99.25158 -80.45768,-179.712136 -179.70925,-179.712136 -99.20552,0 -179.63154,80.394356 -179.7035,179.585476 l -0.006,-0.006 0,139.06735 0.006,0.006 c 0.0547,22.52159 18.31894,40.75417 40.85492,40.75417 0.0633,0 0.12665,-0.006 0.19286,-0.006 l 0.0115,0.006 138.71329,0 0,0 c 99.22279,-0.0403 179.64017,-80.47207 179.64017,-179.69486 z"
             inkscape:connector-curvature="0" />
          <path
             style="fill:#3c6eb4;fill-opacity:1"
             id="path39-2"
             d="m 457.57616,142.59818 c -46.58319,0 -84.34369,37.7605 -84.34369,84.34369 0,0.0173 0,0.0374 0,0.0605 l 0,44.64306 -44.50201,0 c -0.009,0 -0.009,0 -0.0144,0 -46.58606,0 -84.34369,37.57628 -84.34369,84.15371 0,46.58318 37.75763,84.34657 84.34369,84.34657 46.58031,0 84.34369,-37.76627 84.34369,-84.34657 0,-0.0144 0,-0.0374 0,-0.0547 l 0,-44.83304 44.49914,0 c 0.009,0 0.0144,0 0.0173,0 46.58031,0 84.34369,-37.38629 84.34369,-83.96948 0,-46.58319 -37.76338,-84.34369 -84.34369,-84.34369 z m -84.34081,213.27575 c -0.0403,24.55095 -19.9597,44.44732 -44.51641,44.44732 -24.58549,0 -44.70063,-19.93379 -44.70063,-44.51928 0,-24.58837 20.11514,-44.8935 44.70063,-44.8935 0.023,0 0.0432,0.006 0.0605,0.006 l 38.14335,0 c 0.0115,0 0.0202,-0.006 0.0288,-0.006 3.47151,0 6.28958,2.80945 6.28958,6.28095 0,0.003 -0.003,0.009 -0.003,0.0144 l 0,38.67012 -0.003,0 z m 84.33793,-84.23143 c -0.0144,0 -0.0288,0 -0.0432,0 l -38.16925,0 c -0.006,0 -0.0173,0 -0.0173,0 -3.47726,0 -6.28671,-2.8152 -6.28671,-6.2867 l 0,-0.006 0,-38.48301 c 0.0432,-24.55958 19.95683,-44.44732 44.51353,-44.44732 24.58837,0 44.70639,19.93091 44.70639,44.52216 0.006,24.58549 -20.11514,44.70063 -44.70351,44.70063 z"
             inkscape:connector-curvature="0" />
          <path
             style="fill:#ffffff"
             id="path41-9"
             d="m 373.23535,271.6425 0,-44.64306 c 0,-0.023 0,-0.0432 0,-0.0605 0,-46.58318 37.7605,-84.34369 84.34369,-84.34369 7.06966,0 12.08981,0.7916 18.63557,2.5072 9.53656,2.49856 17.32873,10.31376 17.33161,19.41278 0.003,10.99597 -7.97928,18.98963 -19.90789,18.98963 -5.68509,0 -7.73748,-1.08808 -16.06217,-1.08808 -24.55671,0 -44.47035,19.88774 -44.51353,44.44732 l 0,38.48301 0,0.006 c 0,3.4715 2.80944,6.2867 6.2867,6.2867 0,0 0.0115,0 0.0173,0 l 29.23144,0 c 10.89522,0 19.68911,8.71618 19.69775,19.63731 0,10.92976 -8.80541,19.62867 -19.69775,19.62867 l -35.53541,0 0,44.83304 c 0,0.0173 0,0.0403 0,0.0605 0,46.57743 -37.76338,84.34081 -84.34369,84.34081 -7.06678,0 -12.08981,-0.79735 -18.6327,-2.5072 -9.53655,-2.49568 -17.3316,-10.31663 -17.33448,-19.41278 0,-10.99597 7.97927,-18.99251 19.91076,-18.99251 5.67933,0 7.73748,1.09096 16.05642,1.09096 24.55671,0 44.47611,-19.89061 44.51928,-44.44732 0,0 0,-38.68163 0,-38.68163 0,-3.46575 -2.81807,-6.27519 -6.28957,-6.27519 -0.006,0 -0.009,0 -0.0173,0 l -29.22855,-0.006 c -10.89522,0 -19.70063,-8.69314 -19.70063,-19.61715 -0.006,-10.99309 8.89464,-19.64882 19.90788,-19.64882 l 35.32528,0 0,0 z"
             inkscape:connector-curvature="0" />
        </g>
      </g>
      <path
         inkscape:connector-curvature="0"
         id="path5-8"
         d="m 464.27514,-676.90621 c -11.53679,1.60111 -23.07398,3.26013 -34.58884,5.02208 -0.007,8.51734 -0.007,17.03534 0,25.55998 11.53679,-0.0365 23.0665,-0.21172 34.59597,-0.25559 -0.007,-10.11114 1.8e-4,-20.21533 -0.007,-30.32647 z m -37.74742,5.5204 c -8.70743,1.08935 -17.41462,2.24339 -26.08549,3.58131 l 0,21.67029 c 8.70011,0.0219 17.40108,-0.1101 26.10119,-0.10279 -0.007,-8.38574 -0.008,-16.76307 -0.0157,-25.14881 z m -26.08549,27.89044 0,21.72886 c 8.70011,1.17708 17.4,2.30305 26.08549,3.58979 0.0146,-8.40767 -0.007,-16.81535 -0.007,-25.22302 -8.6928,0.0146 -17.38555,-0.12487 -26.07835,-0.0956 z m 29.19267,0.33697 c 0.0146,8.45885 0.0368,16.90995 0.0514,25.36148 11.53679,1.56456 23.07398,3.16531 34.58884,4.89071 0,-10.08921 0.0146,-20.1703 0,-30.25219 l -34.64024,0 z"
         style="fill:#0078d6" />
    </g>
  </g>
</svg>
