<?xml version="1.0" encoding="UTF-8" standalone="no"?>
<svg
   xmlns:dc="http://purl.org/dc/elements/1.1/"
   xmlns:cc="http://creativecommons.org/ns#"
   xmlns:rdf="http://www.w3.org/1999/02/22-rdf-syntax-ns#"
   xmlns:svg="http://www.w3.org/2000/svg"
   xmlns="http://www.w3.org/2000/svg"
   xmlns:sodipodi="http://sodipodi.sourceforge.net/DTD/sodipodi-0.dtd"
   xmlns:inkscape="http://www.inkscape.org/namespaces/inkscape"
   height="59"
   width="181"
   version="1.1"
   id="svg2417"
   sodipodi:docname="Open_Technology_Fund_logo.svg"
   inkscape:version="1.0.2 (e86c870879, 2021-01-15)">
  <metadata
     id="metadata2423">
    <rdf:RDF>
      <cc:Work
         rdf:about="">
        <dc:format>image/svg+xml</dc:format>
        <dc:type
           rdf:resource="http://purl.org/dc/dcmitype/StillImage" />
        <dc:title />
      </cc:Work>
    </rdf:RDF>
  </metadata>
  <defs
     id="defs2421" />
  <sodipodi:namedview
     pagecolor="#ffffff"
     bordercolor="#666666"
     borderopacity="1"
     objecttolerance="10"
     gridtolerance="10"
     guidetolerance="10"
     inkscape:pageopacity="0"
     inkscape:pageshadow="2"
     inkscape:window-width="1920"
     inkscape:window-height="1025"
     id="namedview2419"
     showgrid="false"
     inkscape:zoom="5.0083333"
     inkscape:cx="89.937724"
     inkscape:cy="56.957023"
     inkscape:window-x="4"
     inkscape:window-y="77"
     inkscape:window-maximized="0"
     inkscape:current-layer="layer2"
     inkscape:document-rotation="0" />
  <g
     inkscape:groupmode="layer"
     id="layer2"
     inkscape:label="Layer 2">
    <path
       d="m 68.757431,14.243183 a 2.8146912,2.8146911 0 0 0 -2.801574,-2.910619 2.767137,2.767137 0 0 0 -2.781077,2.883565 2.8146912,2.8146911 0 0 0 2.801575,2.910613 2.767137,2.767137 0 0 0 2.773692,-2.883559 m -7.713547,0 a 4.9193552,4.9193551 0 1 1 9.838708,0 4.9193552,4.9193551 0 0 1 -9.838708,0 M 78.653527,13.88653 a 1.4676077,1.4676077 0 0 0 1.124079,-0.332877 c 0.309091,-0.261545 0.489475,-0.637877 0.496033,-1.036342 0,-0.888765 -0.637877,-1.336425 -1.661103,-1.336425 h -1.578297 v 2.767135 l 1.619288,-0.06071 z M 74.98861,9.3238259 h 3.80266 c 2.216994,0 3.562435,1.2823131 3.562435,3.1262521 0,2.098104 -1.675048,3.180361 -3.761665,3.180361 h -1.557801 v 2.712204 h -2.059564 z m 11.464558,0 h 6.495188 v 1.7709691 h -4.607795 v 1.82344 h 4.055188 v 1.770967 h -4.055188 v 1.889852 h 4.671745 v 1.763589 h -6.559138 z m 10.658597,0 h 1.872642 l 4.324123,5.5580531 V 9.3238259 h 2.00216 v 9.0188171 h -1.72996 l -4.466782,-5.731044 v 5.731044 H 97.111765 Z M 65.383572,25.911894 h -2.707286 v -1.830001 h 7.379032 v 1.830001 h -2.713847 v 7.18882 h -1.957899 z m 8.771209,-1.830001 h 6.501745 v 1.763591 h -4.618454 v 1.830821 h 4.06503 v 1.763585 h -4.06503 v 1.897232 h 4.67585 v 1.763592 h -6.559141 z m 10.660243,4.516787 a 4.4011831,4.401183 0 0 1 1.336425,-3.225456 4.561062,4.5610618 0 0 1 3.293505,-1.285594 4.6340324,4.6340325 0 0 1 3.501764,1.346266 l -1.246236,1.411851 a 3.3058066,3.3058066 0 0 0 -2.268647,-0.986328 2.6441532,2.6441532 0 0 0 -1.87755,0.820712 2.5515054,2.5515054 0 0 0 -0.70019,1.898872 c -0.04665,0.705104 0.202513,1.397096 0.689529,1.916088 a 2.6441532,2.6441532 0 0 0 1.888211,0.829731 3.232016,3.232016 0 0 0 2.334236,-1.024862 l 1.246235,1.238035 a 4.5815595,4.5815594 0 0 1 -3.640321,1.558616 4.5266269,4.5266267 0 0 1 -3.255803,-1.301173 4.3683875,4.3683873 0 0 1 -1.301158,-3.209878 m 12.296741,-4.503667 h 1.918552 v 3.567349 h 3.535383 v -3.567349 h 1.92511 v 9.018821 h -1.92511 v -3.620648 h -3.535383 v 3.620648 h -1.918552 z m 13.118275,0 h 1.86609 l 4.32408,5.550671 v -5.550671 h 2.00872 v 9.018821 H 116.699 l -4.46677,-5.731055 v 5.731055 h -2.00219 z m 19.19944,4.919354 a 2.8146912,2.8146911 0 0 0 -2.80156,-2.910615 2.767137,2.767137 0 0 0 -2.78111,2.88355 2.8146912,2.8146911 0 0 0 2.80158,2.910628 2.767137,2.767137 0 0 0 2.77371,-2.883563 m -7.71361,0 a 4.919375,4.919375 0 1 1 9.83875,0 4.919375,4.919375 0 0 1 -9.83875,0 m 13.9382,-4.919354 h 2.00875 v 7.215055 h 4.55043 v 1.803766 h -6.55918 z m 16.72586,4.919354 a 2.8146912,2.8146911 0 0 0 -2.80161,-2.910615 2.767137,2.767137 0 0 0 -2.7737,2.88355 2.8146912,2.8146911 0 0 0 2.80162,2.910628 2.767137,2.767137 0 0 0 2.77369,-2.883563 m -7.70701,0 a 4.9193584,4.9193583 0 1 1 9.8387,0 4.9193584,4.9193583 0 0 1 -9.8387,0 m 13.11826,-0.39683 c 0,-1.208519 0.52474,-2.367848 1.45616,-3.216439 0.93138,-0.848585 2.19239,-1.316746 3.50012,-1.299524 1.36019,-0.06557 2.69332,0.365668 3.7141,1.1995 l -1.29869,1.432353 a 3.6534412,3.6534412 0 0 0 -2.47117,-0.883846 c -1.5611,0.06316 -2.77451,1.279037 -2.71547,2.722864 -0.0463,0.725598 0.23531,1.43645 0.77803,1.962822 a 2.951613,2.951613 0 0 0 2.08419,0.811693 3.5238979,3.5238979 0 0 0 1.96123,-0.523093 v -1.232295 h -2.09409 v -1.664383 h 4.10442 v 3.793644 c -1.12163,0.898604 -2.55805,1.391357 -4.04206,1.387257 -1.32248,0.06233 -2.61302,-0.391088 -3.55835,-1.249519 -0.94369,-0.858423 -1.45611,-2.04317 -1.41103,-3.266448 m 14.98025,0.967474 -3.50912,-5.464584 h 2.35063 l 2.17599,3.620645 2.21533,-3.620645 h 2.27687 l -3.50258,5.424408 v 3.594413 h -2.00712 z M 62.676286,39.659848 h 6.559135 v 1.803768 h -4.663547 v 1.923465 h 4.110124 v 1.797203 h -4.110124 v 3.494384 h -1.895588 z m 10.658602,5.075957 v -5.075957 h 2.077606 v 5.023483 c 0,1.441371 0.761681,2.194035 2.021854,2.194035 1.260175,0 2.02186,-0.720689 2.02186,-2.128445 v -5.089073 h 2.077605 v 5.010365 c 0,2.685146 -1.593053,4.008455 -4.113405,4.008455 -2.520345,0 -4.058465,-1.310192 -4.058465,-3.929747 m 12.271333,-5.089073 h 1.866075 l 4.324107,5.550675 V 39.659848 H 93.8322 v 9.01882 h -1.729976 l -4.466771,-5.73761 v 5.73761 h -2.002177 z m 14.946644,7.244573 a 2.51461,2.51461 0 0 0 1.92264,-0.732167 c 0.50998,-0.508334 0.78545,-1.210979 0.7584,-1.936584 a 2.617097,2.617097 0 0 0 -0.74529,-1.964463 2.5342876,2.5342876 0 0 0 -1.93493,-0.756762 h -1.511066 v 5.449827 l 1.511066,-0.0599 z m -3.468155,-7.244573 h 3.468155 c 2.79912,0 4.73077,1.948068 4.73077,4.496293 0,2.541664 -1.93165,4.522527 -4.73077,4.522527 h -3.468155 z"
       fill="#404041"
       stroke-width="0.81989"
       id="path2407" />
    <g
       fill="#25aae1"
       stroke-width="2.1127"
       transform="matrix(0.38867234,0,0,0.38867234,4.0791228,9.3041453)"
       id="g2413">
      <path
         d="M 25.3473,0 H 38.0235 V 12.6762 H 25.3473 Z m 0,88.7334 h 12.6762 v 12.6762 H 25.3473 Z M 12.6711,12.6762 H 25.3473 V 25.3524 H 12.6711 Z m 0,63.381 H 25.3473 V 88.7334 H 12.6711 Z M -0.0051,25.3524 H 12.6711 V 76.0572 H -0.0051 Z"
         id="path2409" />
      <path
         d="M 76.0521,0 H 88.7283 V 12.6762 H 76.0521 Z m 12.6762,76.0572 h 12.6762 V 88.7334 H 88.7283 Z M 76.0521,88.7334 h 12.6762 v 12.6762 H 76.0521 Z M 88.7283,12.6762 h 12.6762 V 25.3524 H 88.7283 Z m 12.6762,12.6762 h 12.6762 v 50.7048 h -12.6762 z"
         id="path2411" />
    </g>
  </g>
</svg>
