<?xml version="1.0" encoding="UTF-8" standalone="no"?>
<!-- Created with Inkscape (http://www.inkscape.org/) -->

<svg
   xmlns:dc="http://purl.org/dc/elements/1.1/"
   xmlns:cc="http://creativecommons.org/ns#"
   xmlns:rdf="http://www.w3.org/1999/02/22-rdf-syntax-ns#"
   xmlns:svg="http://www.w3.org/2000/svg"
   xmlns="http://www.w3.org/2000/svg"
   xmlns:sodipodi="http://sodipodi.sourceforge.net/DTD/sodipodi-0.dtd"
   xmlns:inkscape="http://www.inkscape.org/namespaces/inkscape"
   width="100"
   height="100"
   viewBox="0 0 100 100"
   id="svg4737"
   version="1.1"
   inkscape:version="0.91 r13725"
   sodipodi:docname="icon-partners.svg">
  <defs
     id="defs4739" />
  <sodipodi:namedview
     id="base"
     pagecolor="#ffffff"
     bordercolor="#666666"
     borderopacity="1.0"
     inkscape:pageopacity="0.0"
     inkscape:pageshadow="2"
     inkscape:zoom="3.1129573"
     inkscape:cx="36.730209"
     inkscape:cy="42.640378"
     inkscape:document-units="px"
     inkscape:current-layer="layer1"
     showgrid="false"
     units="px"
     inkscape:window-width="1229"
     inkscape:window-height="822"
     inkscape:window-x="449"
     inkscape:window-y="207"
     inkscape:window-maximized="0" />
  <metadata
     id="metadata4742">
    <rdf:RDF>
      <cc:Work
         rdf:about="">
        <dc:format>image/svg+xml</dc:format>
        <dc:type
           rdf:resource="http://purl.org/dc/dcmitype/StillImage" />
        <dc:title />
      </cc:Work>
    </rdf:RDF>
  </metadata>
  <g
     inkscape:label="Layer 1"
     inkscape:groupmode="layer"
     id="layer1"
     transform="translate(0,-952.36216)">
    <path
       d="m 10.730945,983.05823 c -1.0305,0.043 -1.9843896,0.69 -2.3691396,1.7168 l -7.90820996,21.11707 c -0.513,1.369 0.18178,2.8933 1.55077996,3.4063 l 15.1230496,5.6641 c 1.368,0.511 2.89325,-0.1818 3.40625,-1.5508 l 7.9082,-21.11527 c 0.513,-1.369 -0.18178,-2.8952 -1.55078,-3.4082 l -15.12304,-5.664 c -0.34225,-0.128 -0.69361,-0.1804 -1.03711,-0.166 z m 80.55469,0.08 c -0.17527,0.014 -0.35197,0.047 -0.52735,0.098 l -15.50586,4.5098 c -1.404,0.409 -2.20973,1.8772 -1.80273,3.2812 l 6.29883,21.65037 c 0.408,1.404 1.87629,2.2097 3.27929,1.8027 l 15.50782,-4.5117 c 1.404004,-0.408 2.209735,-1.8763 1.802735,-3.2793 l -6.300785,-21.65227 c -0.35613,-1.2285 -1.52512,-1.9983 -2.75195,-1.8985 z m -45.91993,3.7227 c -0.63506,0.056 -1.22842,0.277 -1.73242,0.625 -0.014,0.01 -0.0374,0.026 -0.0664,0.049 -0.16399,0.119 -0.31893,0.2486 -0.46093,0.3926 -1.839,1.6 -7.70508,6.916 -7.70508,6.916 0.156,0.157 0.39236,0.349 0.69336,0.543 0.195,0.125 0.41892,0.2492 0.66992,0.3672 0.22,0.103 0.4578,0.1992 0.7168,0.2832 0.111,0.035 0.22089,0.072 0.33789,0.1035 1.359,0.356 3.38301,0.3923 5.66601,-1.1777 0.213,-0.146 1.45018,-1.0043 1.82618,-1.2793 0.6,-0.438 1.68178,-0.8515 3.30078,-0.7305 1.62,0.122 4.18359,0.8477 4.18359,0.8477 l 24.46094,15.00777 -5.0332,-17.31637 c 0,0 -2.04116,0.4764 -4.03516,0.5234 -1.994,0.047 -5.27097,-0.3177 -6.04297,-0.6777 -0.772,-0.36 -1.26791,-0.592 -1.87891,-0.877 -3.032,-1.415 -5.55759,-2.5918 -5.55859,-2.5918 -0.084,-0.04 -0.17277,-0.06 -0.25977,-0.092 -0.02,-0.01 -0.0386,-0.012 -0.0586,-0.02 -0.312,-0.123 -0.64605,-0.2063 -0.99805,-0.2383 l -7.3789,-0.6582 c -0.219,-0.02 -0.4348,-0.018 -0.64649,0 z m -6.6289,3.1855 c -0.861,0.063 -1.68575,0.1532 -2.34375,0.2832 -2.548,0.503 -6.65039,2.418 -6.65039,2.418 l -6.32227,16.93557 c 0,0 1.42398,2.3905 1.45898,2.2695 l 0.42579,-1.3516 c 0.507,-1.709 2.12378,-2.8717 3.92578,-2.8047 0.33,0.013 0.65856,0.067 0.97656,0.1622 1.012,0.3 1.84661,0.9743 2.34961,1.9003 0.109,0.201 0.19558,0.4091 0.26758,0.6211 0.742,-0.663 1.73025,-1.0448 2.78125,-1.0058 0.33,0.013 0.65756,0.068 0.97656,0.1621 1.011,0.3 1.84561,0.9753 2.34961,1.9023 0.026,0.049 0.0473,0.099 0.0723,0.1485 0.75901,-0.998 1.97211,-1.6027 3.28711,-1.5547 0.33,0.012 0.65952,0.066 0.97852,0.1601 1.011,0.301 1.84466,0.9744 2.34766,1.9004 0.368,0.678 0.52479,1.4336 0.46679,2.1836 0.592,-0.308 1.26671,-0.4723 1.97071,-0.4453 0.33,0.012 0.65756,0.066 0.97656,0.1602 1.011,0.3 1.84561,0.9753 2.34961,1.9023 0.061,0.111 0.11311,0.2259 0.16211,0.3399 0.095,0.01 0.18839,0.04 0.27539,0.094 l 3.60547,2.2129 c 0.003,0 0.006,-2e-4 0.008,0.01 l 6.30664,3.8711 c 1.235,0.759 2.85333,0.3727 3.61133,-0.8633 0.759,-1.235 0.37172,-2.8524 -0.86328,-3.6114 l -7.0625,-4.3378 -0.002,0 -2.39453,-1.4708 c -0.312,-0.192 -0.41075,-0.603 -0.21875,-0.916 0.191,-0.312 0.60107,-0.4097 0.91407,-0.2187 l 3.61523,2.2187 c 0.009,0.01 0.0145,0.015 0.0215,0.02 l 8.08789,4.9648 c 1.236,0.759 2.85333,0.3717 3.61133,-0.8633 0.759,-1.236 0.37272,-2.8533 -0.86328,-3.6113 l -8.73047,-5.3594 -0.002,0 -3.83008,-2.3535 c -0.332,-0.203 -0.43742,-0.6367 -0.23242,-0.9687 0.203,-0.332 0.63775,-0.4345 0.96875,-0.2305 l 3.49805,2.1465 11.0957,6.8125 c 1.235,0.759 2.85333,0.3717 3.61133,-0.8653 0.759,-1.237 0.37172,-2.8542 -0.86328,-3.6132 l 0,-0.01 -14.26563,-8.7578 c -0.056,-0.034 -0.11192,-0.063 -0.16992,-0.092 l -9.01758,-5.54487 c -0.706,-0.185 -2.58209,-0.6376 -3.74609,-0.7246 -0.083,-0.01 -0.16514,-0.011 -0.24414,-0.014 -1.293,-0.048 -1.95278,0.3262 -2.17578,0.4902 -0.396,0.29 -1.66338,1.1697 -1.85938,1.3047 -1.644,1.13 -3.36995,1.6695 -5.12695,1.6035 -0.546,-0.021 -1.0911,-0.1012 -1.6211,-0.2402 -0.111,-0.029 -0.22012,-0.064 -0.32812,-0.098 l -0.0723,-0.021 c -0.309,-0.1 -0.60276,-0.2167 -0.88476,-0.3497 -0.287,-0.134 -0.56232,-0.2842 -0.82032,-0.4492 -0.36099,-0.233 -0.67796,-0.4826 -0.91796,-0.7246 l -0.97657,-0.9824 1.02539,-0.9317 c 0.143,-0.1289 2.19857,-1.9914 4.22657,-3.8164 z m -9.42383,19.08007 c -1.21715,-0.1059 -2.38081,0.654 -2.74219,1.8711 l -0.41797,1.332 c -0.413,1.391 0.38049,2.8517 1.77149,3.2637 1.39,0.413 2.85167,-0.3805 3.26367,-1.7715 l 0.41797,-1.332 c 0.413,-1.391 -0.37853,-2.8517 -1.76953,-3.2637 -0.17388,-0.052 -0.34956,-0.085 -0.52344,-0.1 z m 6.37305,1.6797 c -1.21666,-0.1059 -2.38169,0.654 -2.74219,1.8711 l -1.34375,4.3613 c -0.412,1.39 0.38048,2.8517 1.77148,3.2637 1.391,0.413 2.85263,-0.3805 3.26563,-1.7715 l 1.34179,-4.3594 c 0.413,-1.391 -0.38048,-2.8536 -1.77148,-3.2656 -0.17375,-0.052 -0.34768,-0.084 -0.52148,-0.1 z m 6.68554,0.6563 c -1.21696,-0.1059 -2.37886,0.6539 -2.74023,1.8711 l -2.05469,6.6699 c -0.412,1.391 0.38149,2.8506 1.77149,3.2636 1.39099,0.412 2.85067,-0.3804 3.26367,-1.7714 l 2.05273,-6.67 c 0.413,-1.391 -0.37853,-2.8516 -1.76953,-3.2636 -0.17387,-0.052 -0.34959,-0.084 -0.52344,-0.1 z m 5.76172,3.8007 c -1.21666,-0.1058 -2.38169,0.6531 -2.74219,1.8711 l -1.71093,5.6739 c -0.413,1.391 0.37853,2.8516 1.76953,3.2636 1.39,0.413 2.85362,-0.3814 3.26562,-1.7714 l 1.71094,-5.6719 c 0.413,-1.392 -0.38048,-2.8536 -1.77148,-3.2657 -0.17375,-0.052 -0.34768,-0.084 -0.52149,-0.1 z m 3.71875,2.7383 c -0.011,0.334 -0.0602,0.6671 -0.15625,0.9961 l -1.29101,4.2754 4.79882,2.9453 c 1.235,0.759 2.85333,0.3727 3.61133,-0.8633 0.758,-1.236 0.37272,-2.8523 -0.86328,-3.6113 l 0,0.01 -3.21289,-1.9727 c -0.003,0 -0.007,2e-4 -0.01,-0.01 l -2.87695,-1.7656 z"
       id="path3-3"
       style="fill:#b3b3b3;fill-opacity:1"
       inkscape:connector-curvature="0" />
  </g>
</svg>
