<svg width="873" height="512" viewBox="0 0 873 512" fill="none" xmlns="http://www.w3.org/2000/svg">
<rect width="873" height="512" fill="white"/>
<path d="M115.801 397.698V322.116H160.844V331.675H126.255V355.461H159.287V365.02H126.255V397.698H115.801Z" fill="#6D4AFF"/>
<path d="M190.93 398.81C175.582 398.81 164.015 386.917 164.015 371.689C164.015 356.461 175.582 344.568 190.93 344.568C206.278 344.568 217.845 356.461 217.845 371.689C217.845 386.917 206.278 398.81 190.93 398.81ZM190.93 389.473C200.495 389.473 207.613 382.026 207.613 371.689C207.613 361.352 200.495 353.905 190.93 353.905C181.366 353.905 174.248 361.352 174.248 371.689C174.248 382.026 181.366 389.473 190.93 389.473Z" fill="#6D4AFF"/>
<path d="M249.981 398.81C236.301 398.81 227.849 389.473 227.849 376.469V345.68H238.081V375.691C238.081 384.138 241.973 389.251 249.981 389.251C257.989 389.251 261.881 384.138 261.881 375.691V345.68H272.113V376.469C272.113 389.473 263.661 398.81 249.981 398.81Z" fill="#6D4AFF"/>
<path d="M285.413 366.91C285.413 353.905 294.088 344.568 307.99 344.568C321.892 344.568 330.567 353.905 330.567 366.91V397.698H320.335V367.688C320.335 359.129 316.22 353.905 307.99 353.905C299.76 353.905 295.645 359.129 295.645 367.688V397.698H285.413V366.91Z" fill="#6D4AFF"/>
<path d="M384.437 397.698L383.548 389.807C379.766 395.698 373.093 398.81 365.642 398.81C352.518 398.81 340.618 388.917 340.618 371.689C340.618 354.461 352.518 344.568 365.642 344.568C372.871 344.568 379.433 347.458 383.214 353.016V322.116H393.446V397.698H384.437ZM367.087 389.473C375.762 389.473 383.548 382.693 383.548 371.689C383.548 360.685 375.762 353.905 367.087 353.905C358.301 353.905 350.85 360.352 350.85 371.689C350.85 383.026 358.301 389.473 367.087 389.473Z" fill="#6D4AFF"/>
<path d="M430.379 398.81C417.144 398.81 405.133 388.917 405.133 371.689C405.133 354.461 417.144 344.568 430.379 344.568C437.497 344.568 444.615 347.68 448.508 353.683L449.398 345.68H458.406V397.698H449.398L448.508 389.696C444.615 395.698 437.497 398.81 430.379 398.81ZM432.047 389.473C440.5 389.473 448.508 382.693 448.508 371.689C448.508 360.685 440.5 353.905 432.047 353.905C423.372 353.905 415.365 360.352 415.365 371.689C415.365 383.026 423.372 389.473 432.047 389.473Z" fill="#6D4AFF"/>
<path d="M494.449 398.365C484.329 398.365 476.543 392.03 476.543 380.915L476.432 354.35H467.201V345.68H476.432V328.229H486.775V345.68H501.901V354.35H486.775V379.692C486.775 387.028 490.223 389.14 497.23 389.14L501.123 389.029V397.587C498.787 398.143 496.563 398.365 494.449 398.365Z" fill="#6D4AFF"/>
<path d="M511.544 397.698V345.68H521.776V397.698H511.544ZM516.66 335.676C512.99 335.676 509.987 332.786 509.987 329.118C509.987 325.339 512.99 322.449 516.66 322.449C520.33 322.449 523.333 325.339 523.333 329.118C523.333 332.786 520.33 335.676 516.66 335.676Z" fill="#6D4AFF"/>
<path d="M558.797 398.81C543.449 398.81 531.882 386.917 531.882 371.689C531.882 356.461 543.449 344.568 558.797 344.568C574.145 344.568 585.712 356.461 585.712 371.689C585.712 386.917 574.145 398.81 558.797 398.81ZM558.797 389.473C568.362 389.473 575.48 382.026 575.48 371.689C575.48 361.352 568.362 353.905 558.797 353.905C549.232 353.905 542.114 361.352 542.114 371.689C542.114 382.026 549.232 389.473 558.797 389.473Z" fill="#6D4AFF"/>
<path d="M595.715 366.91C595.715 353.905 604.39 344.568 618.293 344.568C632.195 344.568 640.87 353.905 640.87 366.91V397.698H630.638V367.688C630.638 359.129 626.523 353.905 618.293 353.905C610.062 353.905 605.947 359.129 605.947 367.688V397.698H595.715V366.91Z" fill="#6D4AFF"/>
<path d="M114.4 232.39V274.356H143.846V234.205C143.846 230.299 145.397 226.553 148.158 223.791C150.919 221.029 154.664 219.477 158.569 219.477H188.761C202.846 219.473 216.352 213.873 226.31 203.908C236.269 193.944 241.863 180.431 241.865 166.341V166.341C241.865 152.249 236.269 138.733 226.309 128.768C216.349 118.802 202.84 113.203 188.753 113.201H114.4V165.659H143.846V140.927H186.768C193.433 140.927 199.825 143.575 204.538 148.288C209.251 153.002 211.9 159.395 211.902 166.062V166.062C211.902 172.731 209.254 179.126 204.541 183.842C199.827 188.557 193.434 191.206 186.768 191.206H155.564C150.157 191.203 144.803 192.267 139.807 194.336C134.811 196.404 130.272 199.438 126.449 203.263C122.626 207.088 119.594 211.629 117.527 216.626C115.459 221.624 114.397 226.981 114.4 232.39V232.39Z" fill="#6D4AFF"/>
<path d="M158.561 219.477C146.849 219.478 135.617 224.133 127.336 232.417C119.054 240.702 114.401 251.938 114.4 263.655V274.356H143.846V234.205C143.846 230.301 145.396 226.555 148.155 223.794C150.915 221.032 154.657 219.479 158.561 219.477V219.477Z" fill="url(#paint0_linear_1406_338)"/>
<path d="M246.431 274.36V210.426C246.431 184.342 261.658 163.568 292.116 163.568C297.005 163.497 301.884 164.039 306.638 165.183V191.484C303.177 191.254 300.184 191.254 298.792 191.254C282.657 191.254 275.719 198.639 275.719 213.642V274.36H246.431Z" fill="#6D4AFF"/>
<path d="M315.415 220.135C315.415 188.051 339.641 163.585 373.331 163.585C407.02 163.585 431.242 188.034 431.242 220.135C431.242 252.235 407.016 276.899 373.331 276.899C339.645 276.899 315.415 252.203 315.415 220.135ZM402.405 220.135C402.405 201.9 390.175 188.975 373.335 188.975C356.494 188.975 344.26 201.887 344.26 220.135C344.26 238.6 356.49 251.295 373.335 251.295C390.179 251.295 402.405 238.584 402.405 220.135Z" fill="#6D4AFF"/>
<path d="M524.912 220.135C524.912 188.051 549.139 163.585 582.828 163.585C616.517 163.585 640.74 188.034 640.74 220.135C640.74 252.235 616.513 276.915 582.828 276.915C549.143 276.915 524.912 252.203 524.912 220.135ZM611.899 220.135C611.899 201.9 599.669 188.975 582.828 188.975C565.987 188.975 553.753 201.887 553.753 220.135C553.753 238.6 565.983 251.295 582.828 251.295C599.673 251.295 611.899 238.584 611.899 220.135V220.135Z" fill="#6D4AFF"/>
<path d="M655.967 274.36V212.734C655.967 184.112 674.195 163.569 706.727 163.569C739.029 163.569 757.257 184.112 757.257 212.734V274.36H728.186V215.042C728.186 199.119 721.03 189.192 706.727 189.192C692.423 189.192 685.268 199.119 685.268 215.042V274.36H655.967Z" fill="#6D4AFF"/>
<path d="M516.155 189.188H484.539V229.581C484.539 243.66 489.614 250.124 504.151 250.124C505.535 250.124 508.991 250.124 513.38 249.894V273.67C507.382 275.284 502.086 276.208 496.306 276.208C471.849 276.224 455.247 261.435 455.247 233.507V189.188H435.623V165.877H440.516C442.451 165.878 444.368 165.497 446.156 164.756C447.944 164.015 449.569 162.929 450.937 161.56C452.305 160.19 453.39 158.564 454.13 156.775C454.869 154.986 455.249 153.068 455.247 151.132V129.176H484.547V165.877H516.155V189.188Z" fill="#6D4AFF"/>
<defs>
<linearGradient id="paint0_linear_1406_338" x1="136.48" y1="266.419" x2="136.48" y2="204.752" gradientUnits="userSpaceOnUse">
<stop stop-color="#6D4BFD"/>
<stop offset="1" stop-color="#1C0554"/>
</linearGradient>
</defs>
</svg>
