<?xml version="1.0" encoding="UTF-8" standalone="no"?>
<svg id="svg2" xmlns:sketch="http://www.bohemiancoding.com/sketch/ns" xmlns:rdf="http://www.w3.org/1999/02/22-rdf-syntax-ns#" xmlns="http://www.w3.org/2000/svg" height="400" width="300" version="1.1" xmlns:cc="http://creativecommons.org/ns#" viewBox="0 0 300 400" xmlns:dc="http://purl.org/dc/elements/1.1/">
 <g id="layer1" transform="translate(0 -652.36)">
  <g>
   <path id="icon-handshake" d="m12.676 782.21c-0.9877 0.0412-1.902 0.66135-2.2708 1.6455l-7.5798 20.24c-0.49169 1.3122 0.17423 2.7732 1.4864 3.2648l14.495 5.4289c1.3112 0.48977 2.7731-0.17426 3.2648-1.4864l7.5798-20.238c0.49169-1.3122-0.17423-2.775-1.4864-3.2667l-14.495-5.4288c-0.32803-0.12269-0.66481-0.17291-0.99404-0.15911zm77.21 0.0767c-0.168 0.0134-0.33735 0.045-0.50546 0.0939l-14.862 4.3225c-1.3457 0.39202-2.118 1.7992-1.7279 3.1449l6.0373 20.751c0.39106 1.3457 1.7984 2.1179 3.1431 1.7278l14.864-4.3243c1.3457-0.39106 2.118-1.7984 1.7279-3.1431l-6.0391-20.753c-0.34134-1.1775-1.4618-1.9153-2.6377-1.8197zm-44.013 3.5681c-0.60869 0.0537-1.1774 0.2655-1.6605 0.59904-0.01344 0.01-0.03581 0.025-0.06365 0.0469-0.15718 0.11406-0.30568 0.23827-0.44179 0.37629-1.7626 1.5336-7.3851 6.6288-7.3851 6.6288 0.14953 0.15048 0.37607 0.33451 0.66457 0.52045 0.1869 0.11981 0.40153 0.23886 0.6421 0.35195 0.21086 0.0987 0.43879 0.19093 0.68703 0.27144 0.10639 0.0335 0.21172 0.069 0.32386 0.0992 1.3026 0.34122 3.2425 0.37601 5.4307-1.1288 0.20415-0.13994 1.39-0.9626 1.7503-1.2262 0.57508-0.4198 1.6119-0.81614 3.1637-0.70016 1.5527 0.11693 4.0099 0.81249 4.0099 0.81249l23.445 14.385-4.8242-16.597s-1.9564 0.45662-3.8676 0.50167c-1.9112 0.045-5.0521-0.30451-5.792-0.64956-0.73994-0.34505-1.2153-0.56742-1.8009-0.84058-2.9061-1.3562-5.3268-2.4842-5.3278-2.4842-0.08054-0.0383-0.1656-0.0575-0.24898-0.0882-0.0192-0.01-0.03696-0.0115-0.05616-0.0192-0.29904-0.11789-0.61922-0.19773-0.9566-0.2284l-7.0725-0.63087c-0.2099-0.0192-0.41675-0.0173-0.61964 0zm-6.3536 3.0532c-0.82524 0.0604-1.6157 0.14684-2.2464 0.27144-2.4422 0.48211-6.3742 2.3176-6.3742 2.3176l-6.0597 16.232s1.3649 2.2912 1.3984 2.1752l0.40812-1.2955c0.48594-1.638 2.0356-2.7524 3.7627-2.6882 0.3163 0.0125 0.63122 0.0642 0.93601 0.15546 0.96997 0.28754 1.7699 0.93384 2.252 1.8214 0.10447 0.19265 0.18745 0.39211 0.25646 0.59531 0.71119-0.63547 1.6584-1.0014 2.6658-0.96404 0.31629 0.0125 0.63025 0.0652 0.93601 0.15537 0.96902 0.28755 1.769 0.9348 2.252 1.8233 0.02496 0.0469 0.04531 0.0948 0.06931 0.14233 0.7275-0.95655 1.8902-1.5361 3.1506-1.4901 0.31629 0.0115 0.63213 0.0633 0.93788 0.15344 0.96902 0.2885 1.7681 0.93394 2.2502 1.8215 0.35271 0.64984 0.50299 1.3741 0.44741 2.0929 0.56742-0.29521 1.2141-0.45268 1.8889-0.4268 0.3163 0.0115 0.63026 0.0633 0.93601 0.15354 0.96902 0.28754 1.769 0.9348 2.252 1.8233 0.05846 0.10639 0.10841 0.21652 0.15539 0.32578 0.0911 0.01 0.18057 0.0383 0.26395 0.0901l3.4558 2.121c0.0029 0 0.0058-0.00019 0.0077 0.01l6.0448 3.7104c1.1837 0.72748 2.7348 0.35722 3.4614-0.82745 0.72749-1.1837 0.35628-2.734-0.82742-3.4614l-6.7692-4.1577h-0.0019l-2.2951-1.4097c-0.29905-0.18403-0.3937-0.57796-0.20967-0.87797 0.18307-0.29904 0.57612-0.39269 0.87612-0.20962l3.4651 2.1266c0.0086 0.01 0.01392 0.0144 0.02064 0.0192l7.752 4.7586c1.1847 0.72748 2.7348 0.35627 3.4614-0.82745 0.72748-1.1847 0.35724-2.7348-0.82743-3.4613l-8.3679-5.1368h-0.0019l-3.671-2.2558c-0.31821-0.19457-0.41925-0.61026-0.22277-0.92847 0.19457-0.31822 0.61127-0.41646 0.92852-0.22093l3.3528 2.0574 10.635 6.5296c1.1837 0.72747 2.7348 0.35626 3.4614-0.82938 0.72748-1.1856 0.35628-2.7357-0.82743-3.4632v-0.01l-13.673-8.3941c-0.05366-0.0326-0.10727-0.0604-0.16286-0.0882l-8.6431-5.3146c-0.67668-0.17732-2.4749-0.61112-3.5905-0.69452-0.07958-0.01-0.15828-0.0106-0.23401-0.0134-1.2393-0.046-1.8717 0.31266-2.0854 0.46985-0.37956 0.27796-1.5943 1.1211-1.7822 1.2505-1.5757 1.0831-3.23 1.6002-4.914 1.5369-0.52332-0.0202-1.0458-0.097-1.5538-0.23021-0.10639-0.0278-0.21098-0.0613-0.3145-0.094l-0.06931-0.0202c-0.29617-0.0958-0.57773-0.20769-0.84803-0.33517-0.27508-0.12844-0.53896-0.2724-0.78625-0.43055-0.346-0.22333-0.6498-0.46256-0.87984-0.6945l-0.93602-0.94161 0.98281-0.89301c0.13706-0.12354 2.1073-1.9087 4.0511-3.6579zm-9.0325 18.288c-1.1666-0.1015-2.2819 0.62684-2.6283 1.7934l-0.40061 1.2767c-0.39585 1.3332 0.36468 2.7333 1.6979 3.1282 1.3323 0.39586 2.7333-0.36469 3.1281-1.6979l0.40062-1.2767c0.39585-1.3332-0.36281-2.7333-1.6961-3.1282-0.16666-0.0498-0.33504-0.0815-0.50171-0.0958zm6.1084 1.61c-1.1661-0.1015-2.2828 0.62684-2.6283 1.7934l-1.2879 4.1802c-0.3949 1.3323 0.36468 2.7333 1.6979 3.1282 1.3332 0.39586 2.7342-0.36469 3.13-1.6979l1.2861-4.1784c0.39586-1.3332-0.36468-2.7351-1.6979-3.13-0.16653-0.0498-0.33324-0.0805-0.49982-0.0958zm6.4079 0.62905c-1.1664-0.1015-2.2801 0.62674-2.6264 1.7934l-1.9694 6.3929c-0.39489 1.3332 0.36566 2.7322 1.6979 3.1281 1.3332 0.39489 2.7323-0.3646 3.1281-1.6978l1.9675-6.393c0.39586-1.3332-0.3628-2.7332-1.696-3.1281-0.16666-0.0498-0.33508-0.0805-0.50171-0.0958zm5.5225 3.6429c-1.1661-0.1014-2.2828 0.62598-2.6283 1.7934l-1.6399 5.4383c-0.39585 1.3332 0.36281 2.7332 1.6961 3.1281 1.3323 0.39584 2.7351-0.36556 3.13-1.6978l1.6399-5.4364c0.39586-1.3342-0.36468-2.7351-1.6979-3.1301-0.16653-0.0498-0.33324-0.0805-0.49983-0.0958zm3.5643 2.6246c-0.01056 0.32013-0.0577 0.63939-0.14977 0.95473l-1.2374 4.0979 4.5995 2.823c1.1837 0.72747 2.7348 0.35722 3.4614-0.82746 0.72652-1.1847 0.35724-2.7338-0.82743-3.4613v0.01l-3.0795-1.8908c-0.0029 0-0.0067 0.00019-0.0096-0.01l-2.7575-1.6923z"/>
   <g id="icon-heart" fill-rule="evenodd" sketch:type="MSPage" transform="matrix(1.0549 0 0 1.0549 97.452 750.47)">
    <g id="donate" sketch:type="MSArtboardGroup">
     <path id="Shape" d="m74.144 6.142c-12.269 0-16.457 6.251-23.644 15.295-7.182-9.044-11.375-15.295-23.65-15.295-13.169 0-21.85 9.542-21.85 23.848 0 8.391 3.4434 17.766 11.375 26.317l34.125 37.335 34.125-37.335c7.932-8.551 11.375-17.926 11.375-26.317 0-14.307-8.681-23.848-21.856-23.848z" sketch:type="MSShapeGroup"/>
    </g>
   </g>
   <g id="icon-like" stroke-linejoin="round" fill-rule="evenodd" transform="matrix(1.0692 0 0 1.0692 197.4 651.77)" clip-rule="evenodd" stroke-miterlimit="1.4142">
    <g id="like">
     <path id="path7" d="m9.0012 34.474c-2.2098 0-4.0012 1.79-4.0012 3.998v32.739c0 2.2085 1.7942 3.9988 4.0012 3.9988h12.623c2.2098 0 4.0012-1.7897 4.0012-3.9988v-32.739c0-2.2085-1.7943-3.9988-4.0012-3.9988m69.228-0.7086h-25.594s-3.7796-2.0043-2.7869-6.8958c1.1927-5.8776 1.5518-8.6545 0.6625-11.75-0.8892-3.0961-0.1397-7.6518-5.8003-7.899-3.3197 0.51347-5.3672 2.3101-5.3672 6.9234v5.3592c-0.612 8.06-7.994 17.134-12.054 17.746-4.059 0.611-11.122 0.998-11.122 0.998v34.318s7.4639-0.01 9.3297 0.7545c1.2977 0.5318 8.6806 5.4612 11.139 5.4612h31.011s3.4967-0.5677 4.6104-4.7928c0.4622-1.7532 0.302-3.8692-1.6328-4.3728h-4.4912c-1.9292 0-2.1484-2.4248-2.1484-2.4248s5.6662 0.0837 6.1154 0c1.7281-0.322 5.9157-1.2781 5.9156-5.8166 0-1.9328-0.8628-2.9364-2.3314-2.9364h-7.8439c-1.8557 0-1.8557-2.4561-1.8557-2.4561h9.6996c1.971 0 4.5449-1.0942 4.9086-4.085 0-1.6434 0-4.2003-2.2257-4.6034h-10.527c-1.9699-0.3268-2.0975-2.56-2.0975-2.56l13.054 0.212s1.5832-0.0993 1.7953-0.2018c1.6129-0.7794 3.5719-2.328 3.5719-5.2524 0-4.9728-3.9356-5.724-3.9356-5.724"/>
    </g>
   </g>
   <path id="icon-news" d="m288.76 765.47h-43.805-15.335c-5.7976 0-10.493 4.698-10.493 10.5h-5.3435c-3.6429 0-6.8498 1.8638-8.7322 4.6867-1.1334 1.6721-1.7993 3.6978-1.7993 5.872v32.045c0 11.045 5.1002 18.518 17.507 18.518h68c5.7985 0 10.493-4.7068 10.493-10.5v-50.633c-0.00098-5.7996-4.6931-10.497-10.493-10.497zm-57.239 7.5121h57.624c1.8834 0 3.4198 1.5267 3.4198 3.416v46.68h-0.0191c0 4.1985-3.4001 7.6054-7.6052 7.6054l-0.005 0.0239h-64.114c4.041-0.17668 7.2671-3.4996 7.2671-7.5897l0.0119-46.716c0-1.8891 1.5335-3.4158 3.4198-3.4158zm32.317 6.4782v4.4379h21.972v-4.4379h-21.972zm-28.882 0.1552v28.94h21.976v-28.94h-21.976zm-21.553 3.8744h5.7244v7.7489h-4.3136v4.6559h4.3136v6.1363h-4.3136v4.6555h4.3136v6.1322h-4.3136v4.6636h4.3136v3.4316c0 2.5054-2.0296 4.5428-4.5352 4.5428-2.4997 0-4.5274-2.0374-4.5274-4.5428v-34.75c0.33914-1.5255 1.7045-2.6739 3.3382-2.6739zm50.435 8.332v4.4341h21.972v-4.4341h-21.972zm0 12.354v4.4341h21.972v-4.4341h-21.972zm-28.975 12.358v4.4382h50.944v-4.4382h-50.944z"/>
   <path id="icon-annouce" d="m96.135 869.6-9.5985 2.3988v54.719l9.5985 2.4024v-29.76-29.76zm-15.361 3.84-72.959 18.24v-6.7193h-7.6803v28.799h7.6803v-6.7193l16.318 4.0805v11.28c0 3.7046 3.0185 6.7193 6.7232 6.7193h26.877c3.7047 0 6.7232-3.0146 6.7232-6.7193v-1.2012l16.318 4.0802v-51.84zm-50.879 39.12l28.799 7.1998v2.6429c0 0.5292-0.43109 0.95712-0.96101 0.95712h-26.877c-0.52992 0-0.96101-0.42792-0.96101-0.95712v-9.8426z"/>
   <path id="icon-gears" d="m130.68 853.86c-1.2786 0.19839-2.6562 0.39294-4.0332 0.78652-0.98357 0.19839-1.5744 0.39198-1.8695 0.49021-1.1803 0.29439-2.2627 0.68925-3.3446 1.1811 0.39342 2.7541 0.78722 5.5088 1.279 8.1644-0.39342 0.29439-0.78569 0.49182-1.0807 0.68861-1.1803 0.68828-2.2633 1.3766-3.1485 2.1637-0.59014 0.59005-1.1792 1.0809-1.7693 1.671-2.5573-1.1801-5.0169-2.2623-7.4758-3.4424h-0.0982c-1.9672 2.557-3.6395 5.3114-4.8198 8.2623 2.2622 1.6722 4.427 3.2459 6.6892 4.8199-0.29503 0.98331-0.59018 1.9666-0.68854 2.9502-0.29502 1.1801-0.39435 2.3605-0.39435 3.4424v1.3772c-2.5573 0.98363-5.1147 1.9666-7.6719 2.9502 0.19679 1.869 0.58928 3.7374 0.9827 5.7043 0.39342 1.2786 0.8853 2.4607 1.3771 3.6411 2.754-0.39358 5.5084-0.88539 8.2624-1.3772 0.19678 0.49182 0.39348 0.88347 0.68853 1.277 0.59018 0.98331 1.2788 1.9673 2.0656 2.7541 0.59015 0.78683 1.181 1.3772 1.8695 2.0655-1.1803 2.4591-2.2624 4.9188-3.4427 7.3775v0.0992c1.1803 1.0819 2.4579 1.9679 3.8349 2.6562 0.88523 0.59036 1.7706 1.0815 2.7542 1.4751 0.49178 0.29438 1.0832 0.49213 1.6734 0.6886l0.0982-0.0992c1.5737-2.1637 3.246-4.427 4.8197-6.6889 0.8852 0.29439 1.7708 0.59005 2.6561 0.68829 1.0819 0.19839 2.1622 0.29438 3.3425 0.39453h0.39435 1.3771c0.88523 2.5573 1.7703 5.1143 2.8522 7.7698 1.1803-0.19839 2.3604-0.39326 3.5407-0.6886 0.29502 0 0.58931-0.0992 0.98276-0.29759v0.002c0.29502 0 0.68975-0.0992 0.98484-0.19839 1.2786-0.39326 2.5565-0.88507 3.7368-1.3772-0.39342-2.7538-0.88559-5.5082-1.279-8.2623 0.29503-0.19839 0.68979-0.39102 0.98485-0.68637 0.98353-0.49149 1.8689-1.181 2.7541-1.8693 0.68851-0.59036 1.375-1.2793 2.0635-1.9679 2.4589 1.1804 4.9186 2.3608 7.4758 3.443 2.1638-2.5573 3.7375-5.312 4.9178-8.2626h-0.0982c-2.1639-1.6722-4.427-3.3438-6.6892-4.9178 0.19679-0.88539 0.49213-1.7708 0.59046-2.6559 0.29503-1.1804 0.39438-2.4584 0.39438-3.6392v-1.1807c2.5573-0.98363 5.2127-1.8684 7.77-2.9502-0.0986-1.1804-0.39377-2.4584-0.59047-3.7368-0.19679-0.39358-0.19615-0.68796-0.29406-0.98266-0.0986-0.39358-0.19775-0.68989-0.2963-0.98491-0.39342-1.2786-0.78726-2.4584-1.279-3.6392-2.754 0.49214-5.5063 0.8854-8.2603 1.3775-0.19679-0.29439-0.39377-0.68764-0.5905-0.98299 0-0.0992-0.0982-0.19839-0.0982-0.29758-0.59015-0.8854-1.2791-1.8687-1.9676-2.7541-0.59014-0.59004-1.0832-1.1791-1.6734-1.7692 1.1803-2.5576 2.3608-5.0167 3.4427-7.574-1.2786-1.0819-2.6537-2.0652-4.1291-2.9502-0.8852-0.49181-1.7706-0.98363-2.7542-1.3772-0.39342-0.19839-0.8853-0.39326-1.377-0.6886-1.5737 2.2626-3.2461 4.5233-4.8198 6.7852-0.0986 0-0.0982 0.0992-0.0982 0.0992-0.98356-0.29438-1.9688-0.58973-2.9524-0.78652-1.0819-0.19838-2.1622-0.29438-3.3425-0.29438h-0.0982-1.181c-0.8852-2.6555-1.8683-5.2122-2.9502-7.8677zm3.9841 20.296c1.8682 0.0448 3.711 0.59229 5.5552 1.6374 2.754 1.5737 4.6234 3.9339 5.4102 7.0812 0.88524 3.1474 0.49115 6.0989-1.1809 8.9509-1.5737 2.8526-4.0321 4.6234-7.1795 5.5085-3.049 0.78684-6.0989 0.39294-8.8529-1.1807-2.8524-1.6722-4.7193-4.0324-5.5061-7.1798-0.88523-3.1474-0.49325-6.0986 1.1788-8.9509 1.5737-2.7541 4.0321-4.6234 7.1795-5.4103 1.1434-0.33182 2.2749-0.48381 3.3958-0.45629zm32.014 26.128c-0.98353 0-1.8689 0.0992-2.7541 0.19839-0.29502 2.1637-0.49181 4.3271-0.68853 6.3926-0.29503 0.0992-0.58928 0.19839-0.9827 0.29759-0.8852 0.19839-1.8689 0.58973-2.7541 0.98298-0.49178 0.29439-1.0835 0.58973-1.5753 0.88444h-0.0982c-1.5737-1.3769-3.246-2.7544-4.8198-4.0331v-0.0992c-2.0655 1.4754-3.8347 3.2465-5.31 5.312 1.2786 1.6722 2.6562 3.2459 4.0331 4.9178-0.49178 0.59005-0.78754 1.279-1.181 1.9676-0.39342 0.88539-0.6879 1.6706-0.88462 2.556-0.19679 0.29438-0.29631 0.68956-0.29631 1.0828-2.1638 0.19839-4.2294 0.3939-6.2949 0.59069-0.29503 1.3769-0.39224 2.8517-0.39224 4.3271 0 1.0819 0.0973 2.0648 0.29407 3.0482 2.0655 0.29438 4.2291 0.49181 6.3929 0.6886 0 0.29439 0.0998 0.68956 0.2963 1.0828 0.19679 0.78684 0.49121 1.671 0.88462 2.4581 0.29503 0.59005 0.6895 1.2793 1.0829 1.8693-1.377 1.6719-2.7545 3.2456-4.0332 4.9178h-0.0982c0.78683 0.98331 1.4745 1.9673 2.3598 2.7541 0.49178 0.59037 1.083 1.1791 1.7714 1.6713 0.29503 0.29439 0.68733 0.59165 1.0807 0.88668l0.0982-0.0992c1.6721-1.3772 3.2458-2.6562 4.9178-4.0334 0.59011 0.39358 1.181 0.68796 1.8695 0.98267 0.78684 0.39357 1.5729 0.78843 2.3597 0.9849 0.0986 0.0992 0.19775 0.0992 0.29631 0.0992 0.39342 0.0992 0.68732 0.19519 1.0807 0.19519 0.0982 2.1637 0.29534 4.3274 0.5905 6.3929 0.8852 0.19839 1.7706 0.19839 2.7541 0.29758h0.78662 0.78658c1.0819-0.0992 2.0669-0.0992 3.0504-0.29758 0.29502-2.1637 0.49181-4.3268 0.68854-6.4909 0.29502 0 0.58957-0.0992 0.88465-0.19839 0.8852-0.19839 1.671-0.59101 2.4579-0.98458 0.59011-0.29439 1.181-0.58941 1.8695-0.98267 1.5737 1.3769 3.2458 2.7541 4.9178 4.0331v0.0992c2.0655-1.5737 3.8368-3.2469 5.3122-5.2138v-0.0992c-1.377-1.6722-2.7545-3.3441-4.0331-4.9178 0.29502-0.59005 0.68761-1.2793 0.9827-1.8697 0.39341-0.88507 0.68975-1.7708 0.98484-2.6559 0-0.29438 0.0979-0.58972 0.19615-0.88507 2.1638-0.19839 4.3274-0.39358 6.3929-0.59037 0.19679-0.98362 0.19583-1.9663 0.29406-2.9502v-0.78652-0.88443c-0.0985-0.98363-0.0973-1.9669-0.29406-2.9502-2.0655-0.19839-4.2291-0.3939-6.3929-0.59069-0.0986-0.19839-0.19615-0.49342-0.19615-0.88667-0.0986 0-0.10016-0.0992-0.10016-0.19839-0.19678-0.78684-0.5896-1.573-0.88465-2.3596-0.29503-0.59037-0.5896-1.1817-0.88466-1.6738v-0.0992c1.377-1.5734 2.7542-3.2456 4.1312-4.9178-0.78683-1.0819-1.6728-2.0648-2.558-2.9502-0.49179-0.59005-1.0811-1.1795-1.6712-1.6713-0.39342-0.29439-0.68976-0.49182-0.98485-0.68829-1.672 1.2786-3.3441 2.6562-4.9178 4.0331-0.0986 0-0.0982-0.00032-0.0982 0.0992-0.68847-0.49181-1.3771-0.88571-2.0656-1.1807-0.78687-0.39325-1.5727-0.68796-2.4579-0.88475-0.29502-0.0992-0.58956-0.19839-0.88465-0.29758-0.19679-2.164-0.39374-4.3274-0.5905-6.3929-1.0819-0.19839-2.1646-0.29439-3.2466-0.29439h-1.4751zm0.88469 15.736c2.5573 0 4.6222 0.88572 6.491 2.6562 1.7704 1.8687 2.6561 3.9336 2.6561 6.4909 0 2.4591-0.88568 4.6225-2.6561 6.3933-1.8688 1.8687-3.9337 2.7541-6.491 2.6558-2.4589 0.0992-4.6225-0.78715-6.3929-2.6558-1.7704-1.7708-2.6561-3.9342-2.6561-6.3933 0-2.5573 0.88568-4.6222 2.6561-6.4909 1.7704-1.7705 3.934-2.6562 6.3929-2.6562z"/>
   <path id="icon-document" d="m257.07 854.4h-44.253s-4.8018 0.9524-4.8018 5.5928v85.6s1.004 4.8056 5.4843 4.8056h67.516c4.9208 0 5.7899-4.8056 5.7899-4.8056v-60.829c0-4.414-2.67-6.5776-2.67-6.5776l-20.803-21.309s-2.1153-2.4788-6.2624-2.4788zm-35.761 9.446h32.471c3.4799 0 3.2137 3.8416 3.2137 3.8416v10.301s-0.57372 4.7616 4.1062 4.8016c3.4809 0.04 12.42 0 12.42 0s3.8456-0.04 3.8456 3.5588c0 11.362 0.032 48.076-0.002 50.283-0.0644 4.2-3.8437 4.322-3.8437 4.322h-52.21s-3.7708-0.12-3.8418-3.842c-0.0556-2.8944 0-69.6 0-69.6s0.312-3.6656 3.8418-3.6656zm8.1017 32.628c-1.3257 0-2.4 1.0744-2.4 2.4s1.0742 2.4 2.4 2.4h35.999c1.3257 0 2.4-1.0744 2.4-2.4s-1.0742-2.4-2.4-2.4h-35.999zm0 13.444c-1.3257 0-2.4 1.074-2.4 2.4 0 1.3256 1.0742 2.4 2.4 2.4h35.999c1.3257 0 2.4-1.0744 2.4-2.4 0-1.326-1.0742-2.4-2.4-2.4h-35.999zm0 13.599c-1.3257 0-2.4 1.074-2.4 2.4 0 1.3256 1.0742 2.4 2.4 2.4h35.999c1.3257 0 2.4-1.0744 2.4-2.4 0-1.326-1.0742-2.4-2.4-2.4h-35.999z"/>
   <g fill-rule="evenodd">
    <g id="icon-help" stroke-linejoin="round" transform="matrix(.96 0 0 .96 2.627 952.09)" clip-rule="evenodd" stroke-miterlimit="1.4142">
     <path id="help" d="m68.988 65.472h-13.085v13.059h-10.355v-13.059h-13.085v-10.307h13.085v-13.059h10.355v13.059h13.085m9.3031-42.952s0-4.2631-3.926-4.2631h-48.006c-4.7277 0-4.6296 4.2631-4.6296 4.2631l-0.0981 14.868h-13.83c-4.3099 0-7.801 4.547-7.801 8.846v48.616s1.0638 7.4605 8.5688 7.4605h83.521c6.8464 0 7.9102-7.4605 7.9102-7.4605v-48.616c0-4.2986-3.495-8.8461-7.8014-8.8461h-13.83m-12.286-9.4855h-31.26c-1.8435 0-1.8435 2.1316-1.8435 2.1316v7.4605h35.106v-7.4605c-0.1252-1.7038-1.0192-2.1475-2.0024-2.1316"/>
    </g>
    <g id="icon-trophy" transform="matrix(.96 0 0 .96 101.59 955.08)" sketch:type="MSPage">
     <g id="trophy" sketch:type="MSArtboardGroup">
      <path id="path12-5" d="m90.049 13.05c-0.7-1.3-1.836-2.615-3.219-3.4542-1.388-0.8604-2.978-1.277-4.453-1.2896-1.485-0.0229-4.413 0.8688-4.617 1.0599 0.036-4.3313-0.103-4.9099-0.103-4.9099-0.059-1.35-1.22-4.4562-4.588-4.4562h-46.143c-3.3633 0-4.527 3.1062-4.5879 4.4583 0 0-0.03781 0.80833 0 5.1375-0.084-0.2375-0.397-0.3062-0.643-0.4208-1.205-0.5542-2.59-0.8917-4.075-0.8708-1.4767 0.0125-3.0605 0.43125-4.449 1.2917-1.386 0.8391-2.52 2.1501-3.22 3.4541-0.6973 1.265-1.1217 2.51-1.4262 3.762-0.58816 2.4979-0.64278 4.9521-0.3571 7.3812 0.14284 1.2167 0.38651 2.425 0.74361 3.6333 0.3634 1.2042 0.83813 2.4125 1.5292 3.6188 0.3466 0.6 1.9445 2.6417 2.8526 3.3375 1.086 0.85417 2.2833 1.5396 3.6046 2.0396 1.315 0.47917 1.8258 0.79752 4.2264 0.71042 2.4006-0.08711 4.7259-1.1312 4.7259-1.1312 4.7116 11.744 17.475 20.758 17.475 20.758 1.0902 0.81875 1.7897 2.575 1.5523 3.9042 0 0-0.55665 3.1646-1.1658 6.1771-1.3696 6.8-3.4134 12.675-3.4134 12.675-0.44742 1.2771-1.9262 2.325-3.2895 2.325h-10.835c-1.3633 0-2.4787 1.1062-2.4787 2.4583v12.842c0 1.3542 1.1133 2.4583 2.4787 2.4583h47.66c1.3654 0 2.485-1.1021 2.485-2.4583v-12.842c0-1.35-1.1175-2.4583-2.485-2.4583h-10.832c-1.3633 0-2.8442-1.0479-3.2895-2.325 0 0-2.0439-5.875-3.4155-12.675-0.60707-3.0125-1.1637-6.1792-1.1637-6.1792-0.23106-1.3312 0.46423-3.0875 1.5544-3.9021 0 0 12.971-9.1582 17.679-20.906 0 0 2.3767 1.3374 4.52 1.2811 1.4599 0.05625 2.9093-0.22708 4.2285-0.7125 1.3192-0.49583 2.5144-1.1792 3.6025-2.0396 0.26677-0.21458 0.54405-0.45208 0.80452-0.69583 0.26677-0.25208 0.56086-0.56458 0.80242-0.85 0.49154-0.58542 0.90115-1.1875 1.2477-1.7896 0.68899-1.2042 1.1637-2.4125 1.5271-3.6208 0.3592-1.2062 0.60287-2.4167 0.74361-3.6312 0.272-2.427 0.215-4.882-0.371-7.382-0.305-1.252-0.733-2.497-1.424-3.762zm-70.223 16.568c-0.5662-0.29729-1.9722-1.1434-2.5371-2.3583-0.51918-1.1165-0.73049-1.4261-1.1363-3.7996-0.40583-2.3736 0-4.6281 1.1873-6.0739 0.91494-0.952 1.7202-1.4051 2.4862-1.3851 0.60539 0.0167 1.8688 0.13682 2.5558 0.50441 0.24507 4.5193 0.30557 7.8878 1.6181 13.112-1.7832 0.41774-3.0415 0.59458-4.1739 0zm61.348-0.02732c-1.1324 0.63705-2.3906 0.44757-4.1739-0.000001 1.3125-5.5979 1.373-9.207 1.6181-14.049 0.687-0.39385 1.9504-0.52254 2.5558-0.54044 0.76604-0.02147 1.5713 0.46402 2.4862 1.484 1.1873 1.549 1.5931 3.9646 1.1873 6.5078-0.40583 2.5431-0.61715 2.8748-1.1363 4.071-0.56492 1.3017-1.9709 2.2082-2.5371 2.5267z" sketch:type="MSShapeGroup"/>
     </g>
    </g>
    <g id="icon-comments" transform="matrix(.96 0 0 .96 99.743 654.04)" sketch:type="MSPage">
     <g id="forum" sketch:type="MSArtboardGroup">
      <path id="path12" d="m33 45.879c-3.762 3.827-11.674 11.116-15.319 14.976-0.44482 0.54207-1.3065 0.08642-1.3065-0.55909v-14.702h-8.6551c-5.0756 0-7.7189-2.273-7.7189-7.748v-30.097c0-5.4744 2.6433-7.749 7.7193-7.749h45.565c5.076 0 7.7193 2.2746 7.7155 7.749v27.251h-20.585c-4.8264 0-7.4191 3.2511-7.4154 8.4939v2.3846zm59.138-5.879c5.159 0 7.862 2.349 7.862 8.003v29.084c0 5.6539-2.7025 8.0017-7.8618 8.0017h-3.5274v14.085c0 0.66667-0.8758 1.1373-1.3279 0.57742-4.431-3.478-14.104-10.796-17.801-14.659h-23.62c-5.1592 0-7.8618-2.3505-7.8618-8.0017v-29.087c-0.004-5.654 2.699-8.003 7.858-8.003h46.28z" sketch:type="MSShapeGroup"/>
     </g>
    </g>
   </g>
  </g>
  <g id="icon-outline-logo" transform="matrix(.60058 0 0 .60058 540.93 639.62)" stroke="#111" stroke-width="3.3301" fill="none">
   <path id="path3946-56-5-5" d="m-816.29 25.214a15.882 15.918 0 0 0 -8.3171 2.135l-53.648 31.034a15.882 15.918 0 0 0 -7.9452 13.784v62.1a15.882 15.918 0 0 0 7.9452 13.768l53.648 31.058a15.882 15.918 0 0 0 15.882 0l53.656-31.058a15.882 15.918 0 0 0 7.9371 -13.768v-62.1a15.882 15.918 0 0 0 -7.9371 -13.784l-53.656-31.034a15.882 15.918 0 0 0 -7.5652 -2.135zm-0.17228 35.101a8.7349 8.755 0 0 1 4.1636 1.169l29.512 17.071a8.7349 8.755 0 0 1 4.3663 7.582v34.159a8.7349 8.755 0 0 1 -4.3663 7.5656l-29.512 17.088a8.7349 8.755 0 0 1 -8.7305 0l-29.513-17.088a8.7349 8.755 0 0 1 -4.3653 -7.5656v-34.159a8.7349 8.755 0 0 1 4.3653 -7.582l29.513-17.071a8.7349 8.755 0 0 1 4.5669 -1.169z"/>
   <path id="path3948-7-5-2" d="m-749.26 64.233-30.34 17.551a8.7349 8.755 0 0 1 1.1738 4.375v34.15a8.7349 8.755 0 0 1 -4.3652 7.5742l-29.504 17.08a8.7349 8.755 0 0 1 -4.3496 1.1602v35.102a15.882 15.918 0 0 0 7.9219 -2.1191l11.936-6.9082 15.23 8.8633c6.8122 3.9643 17.78 3.9643 24.592 0l6.8106-3.9629c6.8122-3.9643 6.8122-10.348 0-14.312l-15.146-8.8144 10.234-5.9238a15.882 15.918 0 0 0 7.9375 -13.768v-62.092a15.882 15.918 0 0 0 -2.1309 -7.9551z"/>
   <path id="path3950-9-9-6" d="m-884.06 64.207 30.334 17.56a8.7349 8.755 0 0 1 3.1929 -3.2071l29.508-17.075a8.7349 8.755 0 0 1 8.7265 0.003l29.51 17.071a8.7349 8.755 0 0 1 3.1777 3.1948l30.328-17.55a15.882 15.918 0 0 0 -5.791 -5.8162l-53.664-31.045a15.882 15.918 0 0 0 -15.864 -0.005l-53.649 31.046a15.882 15.918 0 0 0 -5.8092 5.8265z"/>
  </g>
 </g>
</svg>
