<?xml version="1.0" encoding="utf-8"?>
<!-- Generator: Adobe Illustrator 17.0.0, SVG Export Plug-In . SVG Version: 6.00 Build 0)  -->
<!DOCTYPE svg PUBLIC "-//W3C//DTD SVG 1.1//EN" "http://www.w3.org/Graphics/SVG/1.1/DTD/svg11.dtd">
<svg version="1.1" xmlns="http://www.w3.org/2000/svg" xmlns:xlink="http://www.w3.org/1999/xlink" x="0px" y="0px" width="250px"
	 height="125px" viewBox="0 0 250 125" enable-background="new 0 0 250 125" xml:space="preserve">
<g id="_x32_" xmlns:rdf="http://www.w3.org/1999/02/22-rdf-syntax-ns#" xmlns:dc="http://purl.org/dc/elements/1.1/" xmlns:svg="http://www.w3.org/2000/svg" xmlns:inkscape="http://www.inkscape.org/namespaces/inkscape" xmlns:cc="http://creativecommons.org/ns#" xmlns:sodipodi="http://sodipodi.sourceforge.net/DTD/sodipodi-0.dtd" inkscape:version="0.91 r13725" sodipodi:docname="whonix-tor.svg">
	
		<sodipodi:namedview  id="base" showgrid="false" inkscape:zoom="6.5652344" inkscape:cy="38.075802" pagecolor="#ffffff" bordercolor="#666666" borderopacity="1.0" inkscape:cx="84.147376" inkscape:pageshadow="2" inkscape:pageopacity="0.0" inkscape:window-height="964" inkscape:current-layer="text6745-6-5-4" inkscape:window-y="27" inkscape:window-x="179" inkscape:window-width="1384" inkscape:document-units="px" inkscape:window-maximized="0" units="px">
		</sodipodi:namedview>
	<g id="layer1" transform="translate(0,-927.36223)" inkscape:label="Layer 1" inkscape:groupmode="layer">
		<g id="g6999" transform="matrix(0.40156562,0,0,0.40156562,-20.849863,1191.8301)">
			<g id="layer3" transform="matrix(0.35495544,0,0,0.35495544,230.21099,-460.37338)">
				<g id="layer5">
					<path id="path2554-7" inkscape:connector-curvature="0" fill="#ABCD03" d="M264.512,77.979l-4.917,19.529
						c6.965-13.793,18.027-24.172,30.729-33.323c-9.287,10.789-17.754,21.579-22.944,32.368
						c8.741-12.292,20.486-19.12,33.733-23.627c-17.618,15.706-31.602,32.559-42.255,49.494l-8.467-3.687
						C251.892,105.212,257,91.364,264.512,77.979z"/>
					<path id="path2534" inkscape:connector-curvature="0" fill="#FFFCDB" d="M241.901,115.143l16.116,6.686
						c0,4.098-0.333,16.597,2.229,20.284c26.803,34.519,22.293,103.713-5.43,105.488c-42.217,0-58.317-28.679-58.317-55.038
						c0-24.037,28.816-40.016,46.025-54.219C246.894,134.52,246.136,126.069,241.901,115.143z"/>
					<path id="path2536" inkscape:connector-curvature="0" fill="#7D4698" d="M258.021,121.588l5.808,2.963
						c-0.546,3.823,0.273,12.292,4.096,14.476c16.936,10.516,32.914,21.988,39.197,33.46c22.398,40.426-15.706,77.846-48.62,74.295
						c17.891-13.248,23.081-40.425,16.389-70.062c-2.731-11.609-6.966-22.125-14.478-34.007
						C257.159,136.881,258.295,129.647,258.021,121.588z"/>
				</g>
				<g id="layer4">
					<path id="path2538" inkscape:connector-curvature="0" d="M255.225,120.59l12.018,1.639
						c-3.551,11.745,6.966,19.939,10.38,21.852c7.648,4.234,15.023,8.604,20.896,13.93c11.063,10.106,17.345,24.31,17.345,39.333
						c0,14.886-6.829,29.226-18.301,38.786c-10.789,9.014-25.675,12.838-40.152,12.838c-9.014,0-17.072-0.409-25.812-3.278
						c-19.939-6.692-34.826-23.763-36.055-44.25c-1.093-15.979,2.458-28.134,14.887-40.835c6.418-6.692,19.393-14.34,28.271-20.486
						c4.371-3.005,9.014-11.473,0.136-27.451l1.776-1.366l13.157,8.812l-11.108-4.578c0.956,1.366,3.551,7.512,4.098,9.287
						c1.229,5.053,0.683,9.971-0.41,12.155c-5.599,10.107-15.159,12.838-22.124,18.574c-12.292,10.106-25.676,18.164-24.174,45.888
						c0.683,13.657,11.336,30.319,27.314,38.104c9.014,4.371,19.394,6.146,29.91,6.692c9.423,0.41,27.451-5.19,37.284-13.384
						c10.516-8.74,16.389-21.988,16.389-35.508c0-13.658-5.463-26.632-15.706-35.783c-5.873-5.326-15.569-11.745-21.578-15.16
						c-6.009-3.414-13.521-12.974-11.063-22.124L255.225,120.59z"/>
					<path id="path2540" inkscape:connector-curvature="0" d="M251.538,140.803c-1.229,6.283-2.595,17.618-8.058,21.852
						c-2.322,1.638-4.644,3.278-7.102,4.916c-9.833,6.693-19.667,12.974-24.173,29.09c-0.956,3.415-0.136,7.102,0.684,10.516
						c2.458,9.833,9.423,20.486,14.886,26.769c0,0.273,1.093,0.956,1.093,1.229c4.507,5.327,5.873,6.829,22.944,10.652l-0.41,1.913
						c-10.243-2.731-18.71-5.189-24.037-11.336c0-0.136-0.956-1.093-0.956-1.093c-5.736-6.556-12.702-17.481-15.296-27.724
						c-0.956-4.098-1.775-7.238-0.683-11.473c4.643-16.661,14.75-23.217,24.993-30.182c2.322-1.502,5.053-2.869,7.238-4.644
						C246.894,158.148,249.215,148.587,251.538,140.803z"/>
					<path id="path2542" inkscape:connector-curvature="0" d="M255.906,166.751c0.137,7.102-0.556,10.665,1.219,15.719
						c1.092,3.004,4.782,7.102,5.875,11.063c1.502,5.327,3.138,11.199,3,14.75c0,4.098-0.256,11.742-2.031,19.937
						c-1.354,6.771-4.473,12.582-9.719,15.875c-5.373-1.106-11.682-2.995-15.406-6.188c-7.238-6.282-13.649-16.787-14.469-25.938
						c-0.682-7.511,6.273-18.589,15.969-24.188c8.194-4.78,10.1-10.228,11.875-18.969c-2.458,7.648-4.766,14.059-12.688,18.156
						c-11.472,6.009-17.359,16.096-16.813,25.656c0.819,12.291,5.742,20.62,15.438,27.313c4.097,2.868,11.751,5.899,16.531,6.719
						v-0.625c3.625-0.679,8.318-6.633,10.656-14.688c2.049-7.238,2.857-16.502,2.719-22.375c-0.137-3.414-1.643-10.808-4.375-17.5
						c-1.502-3.687-3.81-7.374-5.313-9.969C256.737,178.904,256.726,173.306,255.906,166.751z"/>
					<path id="path2544" inkscape:connector-curvature="0" d="M255.093,193.532c0.136,4.78,2.056,10.905,2.875,17.188
						c0.684,4.644,0.387,9.308,0.25,13.406c-0.135,4.743-1.715,13.242-3.875,17.375c-2.037-0.934-2.833-1.999-4.156-3.719
						c-1.638-2.322-2.751-4.644-3.844-7.375c-0.819-2.049-1.777-4.394-2.188-7.125c-0.546-4.097-0.393-10.507,4.25-17.062
						c3.551-5.19,4.365-5.585,5.594-11.594c-1.64,5.326-2.863,5.869-6.688,10.375c-4.233,4.917-4.938,12.159-4.938,18.031
						c0,2.459,0.98,5.187,1.938,7.781c1.092,2.732,2.029,5.452,3.531,7.5c2.258,3.321,5.148,5.209,6.563,5.563
						c0.009,0.002,0.022-0.002,0.031,0c0.03,0.007,0.065,0.025,0.094,0.031v-0.156c2.65-2.954,4.244-5.889,4.781-8.844
						c0.683-3.551,0.84-7.11,1.25-11.344c0.409-3.551,0.112-8.334-0.844-13.25C258.353,204.167,256.049,197.901,255.093,193.532
						L255.093,193.532z"/>
					<path id="path2550" inkscape:connector-curvature="0" d="M255.498,135.067c0.137,7.101,0.683,20.35,2.595,25.539
						c0.546,1.775,5.599,9.56,9.149,18.983c2.459,6.556,3.005,12.565,3.415,14.34c1.639,7.785-0.41,20.896-3.142,33.324
						c-1.365,6.692-6.009,15.023-11.335,18.301l-1.092,1.912c3.005-0.137,10.379-7.375,12.974-16.389
						c4.371-15.296,6.146-22.398,4.098-39.333c-0.273-1.64-0.956-7.238-3.551-13.248c-3.824-9.151-9.287-17.891-9.969-19.667
						C257.41,155.962,255.771,143.534,255.498,135.067z"/>
					<path id="path2552" inkscape:connector-curvature="0" d="M258.061,125.354c-0.405,7.298-0.514,9.986,0.852,15.312
						c1.502,5.873,9.151,14.34,12.292,24.037c6.009,18.574,4.507,42.884,0.136,61.867c-1.638,6.691-9.424,16.389-17.208,19.529
						l5.736,1.366c3.141-0.137,11.198-7.648,14.34-16.252c5.052-13.521,6.009-29.636,3.96-46.571
						c-0.137-1.639-2.869-16.252-5.463-22.398c-3.688-9.15-10.244-17.345-10.926-19.119
						C260.551,140.12,257.853,133.881,258.061,125.354z"/>
					<rect id="rect2556" x="253.719" y="120.218" width="0.55" height="126.019"/>
				</g>
			</g>
			<path id="path2528" inkscape:connector-curvature="0" fill="#7D4698" d="M265.686-431.24h38.927c1.454,0,2.714,1.212,2.714,2.715
				v11.489c0,1.503-1.26,2.715-2.714,2.715h-7.999c-1.794,0-2.57,1.018-2.57,2.181v37.618c0,1.26-1.018,2.23-2.23,2.23h-13.234
				c-1.212,0-2.182-0.969-2.182-2.23v-37.957c0-1.164-1.067-1.842-1.891-1.842h-8.823c-1.503,0-2.715-1.212-2.715-2.715v-11.489
				C262.971-430.028,264.183-431.24,265.686-431.24z"/>
			<path id="path2532" inkscape:connector-curvature="0" fill="#7D4698" d="M365.558-416.018h0.048h3.393
				c1.26,0,2.278,1.018,2.278,2.23v12.313c0,1.6,0.097,2.23-1.842,2.23c-3.83,0-5.575,2.036-5.575,4.266v20.796
				c0,0.97-0.921,1.794-2.036,1.794h-12.362c-1.115,0-2.036-0.824-2.036-1.794v-23.705c-0.013-0.417-0.005-1.032,0.049-1.357
				c0.679-8.775,7.563-15.795,16.288-16.676C364.056-415.951,365.091-416.018,365.558-416.018L365.558-416.018z"/>
		</g>
		<g id="text6745-6-5">
			<path id="path4179" fill="#8A8A8A" d="M148.161,1037.944h-1.897v-5.466c0-0.686-0.139-1.198-0.418-1.535
				c-0.273-0.338-0.71-0.506-1.31-0.506c-0.798,0-1.383,0.236-1.752,0.707c-0.37,0.472-0.555,1.262-0.555,2.371v4.429h-1.889v-8.89
				h1.479l0.265,1.166h0.096c0.268-0.423,0.648-0.75,1.141-0.981c0.493-0.23,1.04-0.346,1.64-0.346c2.133,0,3.199,1.085,3.199,3.255
				L148.161,1037.944L148.161,1037.944z"/>
			<path id="path4181" fill="#8A8A8A" d="M154.671,1038.105c-1.383,0-2.465-0.402-3.247-1.206c-0.777-0.809-1.165-1.921-1.165-3.336
				c0-1.452,0.362-2.594,1.085-3.424s1.717-1.246,2.982-1.246c1.174,0,2.101,0.356,2.781,1.069c0.681,0.713,1.021,1.693,1.021,2.942
				v1.021h-5.924c0.027,0.863,0.26,1.527,0.699,1.993c0.439,0.461,1.058,0.691,1.857,0.691c0.525,0,1.013-0.048,1.463-0.145
				c0.455-0.102,0.943-0.268,1.463-0.498v1.535c-0.461,0.22-0.927,0.375-1.399,0.466S155.277,1038.104,154.671,1038.105
				L154.671,1038.105z M154.326,1030.324c-0.6,0-1.082,0.19-1.447,0.571c-0.359,0.38-0.573,0.935-0.643,1.664h4.035
				c-0.011-0.734-0.188-1.289-0.531-1.664C155.398,1030.514,154.926,1030.324,154.326,1030.324L154.326,1030.324z"/>
			<path id="path4183" fill="#8A8A8A" d="M163.586,1036.577c0.461,0,0.922-0.072,1.383-0.217v1.423
				c-0.209,0.091-0.48,0.166-0.812,0.225c-0.327,0.064-0.667,0.096-1.021,0.096c-1.79,0-2.685-0.943-2.685-2.829v-4.791h-1.214
				v-0.836l1.302-0.691l0.643-1.881h1.165v1.977h2.532v1.431h-2.532v4.758c0,0.456,0.113,0.793,0.338,1.013
				C162.916,1036.47,163.216,1036.577,163.586,1036.577L163.586,1036.577z"/>
			<path id="path4185" fill="#8A8A8A" d="M174.027,1037.944l-1.149-4.147c-0.139-0.439-0.391-1.46-0.756-3.062h-0.072
				c-0.311,1.447-0.557,2.473-0.739,3.078l-1.182,4.131h-2.09l-2.492-8.89h1.929l1.133,4.381c0.257,1.082,0.439,2.01,0.547,2.781
				h0.048c0.054-0.391,0.134-0.839,0.241-1.342c0.113-0.509,0.209-0.89,0.289-1.141l1.35-4.678h2.074l1.31,4.678
				c0.08,0.263,0.18,0.664,0.297,1.206c0.123,0.541,0.196,0.962,0.217,1.262h0.064c0.08-0.659,0.268-1.581,0.563-2.765l1.149-4.381
				h1.897l-2.508,8.89H174.027L174.027,1037.944z"/>
			<path id="path4187" fill="#8A8A8A" d="M188.061,1033.483c0,1.452-0.372,2.586-1.117,3.4c-0.745,0.815-1.782,1.222-3.111,1.222
				c-0.831,0-1.565-0.188-2.202-0.563c-0.638-0.375-1.128-0.914-1.471-1.616c-0.343-0.702-0.514-1.516-0.514-2.443
				c0-1.441,0.37-2.567,1.109-3.376c0.739-0.809,1.782-1.214,3.127-1.214c1.286,0,2.304,0.415,3.054,1.246
				C187.686,1030.964,188.061,1032.079,188.061,1033.483L188.061,1033.483z M181.59,1033.483c0,2.052,0.758,3.078,2.275,3.078
				c1.5,0,2.251-1.026,2.251-3.078c0-2.031-0.756-3.046-2.267-3.046c-0.793,0-1.369,0.263-1.728,0.788
				C181.767,1031.749,181.59,1032.502,181.59,1033.483z"/>
			<path id="path4189" fill="#8A8A8A" d="M194.748,1028.893c0.38,0,0.694,0.027,0.94,0.08l-0.185,1.76
				c-0.268-0.064-0.547-0.096-0.836-0.096c-0.756,0-1.369,0.246-1.841,0.74c-0.466,0.493-0.699,1.133-0.699,1.921v4.646h-1.889
				v-8.89h1.479l0.249,1.567h0.096c0.295-0.53,0.678-0.951,1.149-1.262C193.69,1029.049,194.202,1028.893,194.748,1028.893
				L194.748,1028.893z"/>
			<path id="path4191" fill="#8A8A8A" d="M199.169,1033.25l1.069-1.334l2.685-2.861h2.178l-3.577,3.818l3.802,5.072h-2.218
				l-2.853-3.898l-1.037,0.852v3.046h-1.873v-12.507h1.873v6.101l-0.096,1.712H199.169L199.169,1033.25z"/>
			<path id="path4193" fill="#8A8A8A" d="M208.654,1037.944h-1.889v-8.89h1.889V1037.944z M206.653,1026.699
				c0-0.338,0.091-0.597,0.273-0.78c0.188-0.182,0.453-0.273,0.796-0.273c0.332,0,0.589,0.091,0.772,0.273
				c0.188,0.182,0.281,0.442,0.281,0.78c0,0.322-0.094,0.576-0.281,0.764c-0.182,0.182-0.439,0.273-0.772,0.273
				c-0.343,0-0.608-0.091-0.796-0.273C206.744,1027.275,206.653,1027.02,206.653,1026.699z"/>
			<path id="path4195" fill="#8A8A8A" d="M219.184,1037.944h-1.897v-5.466c0-0.686-0.139-1.198-0.418-1.535
				c-0.273-0.338-0.71-0.506-1.31-0.506c-0.798,0-1.383,0.236-1.752,0.707c-0.37,0.472-0.555,1.262-0.555,2.371v4.429h-1.889v-8.89
				h1.479l0.265,1.166h0.096c0.268-0.423,0.648-0.75,1.141-0.981c0.493-0.23,1.04-0.346,1.64-0.346c2.133,0,3.199,1.085,3.199,3.255
				L219.184,1037.944L219.184,1037.944z"/>
			<path id="path4197" fill="#8A8A8A" d="M229.319,1029.054v1.037l-1.519,0.281c0.139,0.188,0.255,0.418,0.346,0.691
				c0.091,0.273,0.137,0.563,0.137,0.868c0,0.916-0.316,1.637-0.948,2.162c-0.632,0.525-1.503,0.788-2.612,0.788
				c-0.284,0-0.541-0.021-0.772-0.064c-0.407,0.252-0.611,0.547-0.611,0.884c0,0.204,0.094,0.356,0.281,0.458
				c0.193,0.102,0.544,0.153,1.053,0.153h1.551c0.981,0,1.725,0.209,2.235,0.627s0.764,1.021,0.764,1.808
				c0,1.007-0.415,1.784-1.246,2.331c-0.831,0.547-2.031,0.82-3.601,0.82c-1.211,0-2.135-0.214-2.773-0.643
				c-0.638-0.429-0.956-1.04-0.957-1.833c0-0.547,0.171-1.007,0.514-1.382c0.348-0.37,0.833-0.627,1.455-0.772
				c-0.252-0.107-0.461-0.279-0.627-0.515c-0.161-0.241-0.241-0.493-0.241-0.755c0-0.332,0.094-0.614,0.281-0.844
				c0.188-0.23,0.466-0.458,0.836-0.683c-0.461-0.198-0.836-0.52-1.125-0.965c-0.284-0.45-0.426-0.975-0.426-1.575
				c0-0.965,0.303-1.712,0.908-2.243c0.611-0.53,1.479-0.796,2.604-0.796c0.252,0,0.514,0.019,0.788,0.056
				c0.279,0.032,0.488,0.067,0.627,0.104L229.319,1029.054L229.319,1029.054z M222.335,1039.326c0,0.407,0.182,0.721,0.547,0.94
				c0.37,0.22,0.887,0.33,1.551,0.33c1.029,0,1.795-0.147,2.299-0.442c0.504-0.295,0.756-0.686,0.756-1.174
				c0-0.386-0.139-0.662-0.418-0.828c-0.273-0.161-0.785-0.241-1.535-0.241h-1.431c-0.541,0-0.973,0.126-1.294,0.378
				C222.493,1038.547,222.335,1038.892,222.335,1039.326z M223.146,1031.932c0,0.557,0.142,0.986,0.426,1.286
				c0.289,0.3,0.702,0.45,1.238,0.45c1.093,0,1.64-0.584,1.64-1.752c0-0.579-0.137-1.023-0.41-1.334
				c-0.268-0.316-0.678-0.474-1.23-0.474c-0.547,0-0.962,0.155-1.246,0.466C223.286,1030.884,223.146,1031.337,223.146,1031.932
				L223.146,1031.932z"/>
		</g>
		<g id="text6745-6-5-4">
			<path id="path4200" fill="#8A8A8A" d="M49.026,1037.646l-1.149-4.147c-0.139-0.439-0.391-1.46-0.756-3.063h-0.072
				c-0.311,1.447-0.557,2.473-0.739,3.078l-1.182,4.131h-2.09l-2.492-8.89h1.929l1.133,4.381c0.257,1.082,0.439,2.01,0.547,2.781
				h0.048c0.054-0.391,0.134-0.839,0.241-1.342c0.113-0.509,0.209-0.89,0.289-1.141l1.35-4.678h2.074l1.31,4.678
				c0.08,0.263,0.18,0.664,0.297,1.206c0.123,0.541,0.196,0.962,0.217,1.262h0.064c0.08-0.659,0.268-1.581,0.563-2.765l1.149-4.381
				h1.897l-2.508,8.89L49.026,1037.646L49.026,1037.646z"/>
			<path id="path4202" fill="#8A8A8A" d="M57.064,1037.646h-1.889v-8.89h1.889V1037.646z M55.063,1026.401
				c0-0.338,0.091-0.597,0.273-0.78c0.188-0.182,0.453-0.273,0.796-0.273c0.332,0,0.589,0.091,0.772,0.273
				c0.188,0.182,0.281,0.442,0.281,0.78c0,0.322-0.094,0.576-0.281,0.764c-0.182,0.182-0.439,0.273-0.772,0.273
				c-0.343,0-0.608-0.091-0.796-0.273C55.154,1026.977,55.063,1026.723,55.063,1026.401z"/>
			<path id="path4204" fill="#8A8A8A" d="M63.085,1036.28c0.461,0,0.922-0.072,1.383-0.217v1.423
				c-0.209,0.091-0.48,0.166-0.812,0.225c-0.327,0.065-0.667,0.097-1.021,0.097c-1.79,0-2.685-0.943-2.685-2.829v-4.791h-1.214
				v-0.836l1.302-0.691l0.643-1.881h1.165v1.977h2.532v1.431h-2.532v4.759c0,0.455,0.113,0.793,0.338,1.013
				C62.415,1036.173,62.715,1036.28,63.085,1036.28L63.085,1036.28z"/>
			<path id="path4206" fill="#8A8A8A" d="M74.056,1037.646h-1.897v-5.466c0-0.686-0.139-1.198-0.418-1.535
				c-0.273-0.338-0.71-0.506-1.31-0.506c-0.793,0-1.377,0.239-1.752,0.715c-0.37,0.472-0.555,1.265-0.555,2.379v4.413h-1.889
				v-12.507h1.889v3.175c0,0.509-0.032,1.053-0.096,1.632h0.121c0.257-0.429,0.614-0.761,1.069-0.997
				c0.461-0.236,0.997-0.354,1.608-0.354c2.154,0,3.231,1.085,3.231,3.255V1037.646z"/>
		</g>
	</g>
</g>
<g id="_x31_">
	<g>
		<path fill="#36393D" d="M26.055,31.359h11.713l6.679,34.679l5.216-34.679h11.895l-9.791,44.654H36.944l-5.033-27.543
			l-5.033,27.543H12.055L2.264,31.359h11.895l5.216,34.679L26.055,31.359z"/>
		<path fill="#36393D" d="M202.884,25.778c-1.312,1.281-2.882,1.921-4.713,1.921c-1.83,0-3.416-0.655-4.757-1.967
			c-1.343-1.311-2.013-2.896-2.013-4.758c0-1.86,0.67-3.446,2.013-4.759c1.341-1.311,2.928-1.967,4.757-1.967
			c1.83,0,3.401,0.657,4.713,1.967c1.311,1.313,1.967,2.914,1.967,4.804C204.851,22.911,204.195,24.497,202.884,25.778z
			 M192.041,76.013V31.359h12.262v44.654H192.041z"/>
		<path fill="#36393D" d="M228.641,61.372l-6.771,14.641h-12.72l12.444-23.791l-11.621-20.863h13.36l5.306,13.359l5.307-13.359
			h13.36l-11.621,20.863l12.444,23.791h-12.719L228.641,61.372z"/>
		<path fill="#36393D" d="M171.034,30h-1.921c-3.844,0-7.612,1.512-8.612,3.647V31h-11v2.66c4,5.04,5.734,11.209,5.734,17.878
			c0,6.669-1.734,12.838-5.734,17.878V76h11V41.059c0-0.488,0.722-1.53,1.058-1.896c0.335-0.366,1.301-1.163,1.79-1.163h5.032
			c0.488,0,0.09,0.797,0.426,1.163c0.335,0.366-0.306,1.408-0.306,1.896V76h13V42.522C181.5,34.471,178.598,30,171.034,30z"/>
		<path fill="#36393D" d="M93.461,51.539c0-5.946,1.731-11.717,4.651-16.422C96.361,31.858,93.126,30,88.314,30h-1.921
			c-3.173,0-5.893,1.176-6.893,2.64V16h-14v60h14V40.876c0-1.098,0.09-2.876,1.128-2.876h5.033c0.488,0,1.449,0.797,1.786,1.163
			c0.334,0.366,1.053,1.408,1.053,1.896V76h11v-6.042C94.5,64.822,93.461,58.446,93.461,51.539z"/>
	</g>
	<g>
		<g>
			<g>
				<g>
					<g>
						<path fill="#C3C3D1" d="M140.595,31.786V21.673c0-8.674-6.983-15.463-15.655-15.463h-1.31
							c-8.672,0-16.027,6.789-16.027,15.463v10.122c-5.549,4.692-9.076,11.7-9.076,19.536c0,14.126,11.451,25.577,25.577,25.577
							c14.126,0,25.577-11.451,25.577-25.577C149.68,43.49,146.149,36.478,140.595,31.786z M113.921,21.402
							c0-5.339,4.267-9.576,9.606-9.576h0.438c5.34,0,9.61,4.237,9.61,9.576v6.171c-2.93-1.169-6.124-1.819-9.472-1.819
							c-3.62,0-7.062,0.756-10.183,2.113V21.402z"/>
					</g>
				</g>
				<g>
					<g>
						<path fill="#20AAE6" d="M134.144,44.009L134.144,44.009l-0.228-0.243c-0.056-0.059-0.114-0.119-0.168-0.177h-0.005
							l-9.787-10.311l-9.783,10.311l0,0c-0.011,0.011-0.026,0.024-0.037,0.035l-0.174,0.185l-0.186,0.2l0,0l-0.009,0.007
							c-2.353,2.566-3.648,5.886-3.648,9.351c0,7.632,6.206,13.838,13.838,13.838c7.633,0,13.843-6.205,13.843-13.838
							c0-3.465-1.295-6.785-3.649-9.351L134.144,44.009z"/>
					</g>
					<g>
						<circle fill-rule="evenodd" clip-rule="evenodd" fill="#FFFFFF" cx="123.96" cy="53.368" r="10.198"/>
						<circle fill-rule="evenodd" clip-rule="evenodd" fill="#D8E620" cx="123.96" cy="53.368" r="6.268"/>
						<circle fill-rule="evenodd" clip-rule="evenodd" fill="#FFFFFF" cx="123.96" cy="53.368" r="2.807"/>
					</g>
				</g>
			</g>
		</g>
	</g>
</g>
</svg>
