<?xml version="1.0" encoding="UTF-8" standalone="no"?>
<!-- Created with Inkscape (http://www.inkscape.org/) -->

<svg
   xmlns:dc="http://purl.org/dc/elements/1.1/"
   xmlns:cc="http://creativecommons.org/ns#"
   xmlns:rdf="http://www.w3.org/1999/02/22-rdf-syntax-ns#"
   xmlns:svg="http://www.w3.org/2000/svg"
   xmlns="http://www.w3.org/2000/svg"
   xmlns:sodipodi="http://sodipodi.sourceforge.net/DTD/sodipodi-0.dtd"
   xmlns:inkscape="http://www.inkscape.org/namespaces/inkscape"
   width="250"
   height="100"
   viewBox="0 0 250 100"
   id="svg4402"
   version="1.1"
   inkscape:version="0.91 r13725"
   sodipodi:docname="xen-logo.svg">
  <defs
     id="defs4404" />
  <sodipodi:namedview
     id="base"
     pagecolor="#ffffff"
     bordercolor="#666666"
     borderopacity="1.0"
     inkscape:pageopacity="0.0"
     inkscape:pageshadow="2"
     inkscape:zoom="1.2877077"
     inkscape:cx="190.26354"
     inkscape:cy="39.555995"
     inkscape:document-units="px"
     inkscape:current-layer="layer1"
     showgrid="false"
     units="px"
     inkscape:window-width="1312"
     inkscape:window-height="846"
     inkscape:window-x="137"
     inkscape:window-y="173"
     inkscape:window-maximized="0" />
  <metadata
     id="metadata4407">
    <rdf:RDF>
      <cc:Work
         rdf:about="">
        <dc:format>image/svg+xml</dc:format>
        <dc:type
           rdf:resource="http://purl.org/dc/dcmitype/StillImage" />
        <dc:title></dc:title>
      </cc:Work>
    </rdf:RDF>
  </metadata>
  <g
     inkscape:label="Layer 1"
     inkscape:groupmode="layer"
     id="layer1"
     transform="translate(0,-952.36216)">
    <g
       transform="matrix(0.49388912,0,0,-0.49388912,-25.837758,1303.508)"
       id="g4364">
      <g
         id="g94"
         transform="translate(409.3975,638.9854)">
        <path
           d="m 0,0 c -15.515,0 -28.053,-7.979 -34.655,-13.246 l 1.902,10.135 -38.435,0 -13.539,-62.71 40.182,0 6.863,36.491 c 3.355,4.268 8.928,9.765 15.411,9.763 10.591,-0.003 8.298,-8.452 7.425,-15.123 l -5.434,-30.157 39.177,-0.082 c 0,0 4.575,24.037 5.124,26.682 C 29.516,-11.926 23.15,0 0,0"
           style="fill:#272627;fill-opacity:1;fill-rule:nonzero;stroke:none"
           id="path96"
           inkscape:connector-curvature="0" />
      </g>
      <g
         id="g98"
         transform="translate(278.377,624.7559)">
        <path
           d="m 0,0 c 13.975,0 9.608,-12.9 9.608,-12.9 l -24.023,0 c 0,0 0.438,12.9 14.415,12.9 m 45.421,-25.353 c 0,0 15.29,39.745 -41.052,39.745 -56.341,0 -60.709,-39.745 -60.709,-39.745 0,0 -6.988,-28.907 47.604,-28.907 54.594,0 52.412,21.348 52.412,21.348 l -40.181,0 c 0,0 -3.058,-8.448 -11.357,-8.448 -8.3,0 -13.539,3.11 -11.357,16.007 l 64.64,0 z"
           style="fill:#272627;fill-opacity:1;fill-rule:nonzero;stroke:none"
           id="path100"
           inkscape:connector-curvature="0" />
      </g>
      <g
         id="g102"
         transform="translate(338.0234,544.6045)">
        <path
           d="M 0,0 C 2.271,0 4.157,0.539 5.653,1.614 7.151,2.69 8.081,4.15 8.439,5.996 L 8.465,6.128 C 8.85,8.104 8.495,9.608 7.408,10.64 6.32,11.672 4.619,12.188 2.305,12.188 l -5.963,0 L -6.027,0 0,0 Z m -14.307,22.805 19.658,0 c 2.882,0 5.432,-0.363 7.652,-1.082 2.219,-0.721 4.024,-1.769 5.417,-3.146 1.392,-1.376 2.341,-3.069 2.846,-5.077 0.504,-2.011 0.511,-4.283 0.02,-6.816 L 21.261,6.553 C 20.732,3.844 19.778,1.464 18.396,-0.59 17.014,-2.642 15.313,-4.368 13.295,-5.766 11.275,-7.164 8.985,-8.213 6.425,-8.909 3.865,-9.61 1.166,-9.959 -1.674,-9.959 l -6.29,0 -2.547,-13.104 -12.712,0 8.916,45.868 z"
           style="fill:#272627;fill-opacity:1;fill-rule:nonzero;stroke:none"
           id="path104"
           inkscape:connector-curvature="0" />
      </g>
      <g
         id="g106"
         transform="translate(365.0664,556.9902)">
        <path
           d="M 0,0 12.517,0 11.13,-7.144 c 1.47,2.404 3.219,4.325 5.248,5.767 2.026,1.442 4.513,2.097 7.458,1.966 l -2.548,-13.106 -1.048,0 c -3.276,0 -5.975,-0.961 -8.096,-2.883 -2.121,-1.921 -3.58,-4.937 -4.376,-9.042 l -2.141,-11.007 -12.516,0 L 0,0 Z"
           style="fill:#272627;fill-opacity:1;fill-rule:nonzero;stroke:none"
           id="path108"
           inkscape:connector-curvature="0" />
      </g>
      <g
         id="g110"
         transform="translate(406.335,531.3037)">
        <path
           d="m 0,0 c 1.137,0 2.202,0.205 3.199,0.617 0.998,0.412 1.882,0.975 2.655,1.69 0.772,0.714 1.424,1.548 1.96,2.501 0.535,0.953 0.904,1.951 1.106,2.991 L 8.946,7.93 c 0.21,1.082 0.222,2.099 0.037,3.052 C 8.797,11.937 8.434,12.77 7.896,13.484 7.355,14.199 6.673,14.773 5.839,15.208 5.006,15.64 4.042,15.857 2.951,15.857 1.815,15.857 0.749,15.651 -0.248,15.24 -1.246,14.827 -2.131,14.265 -2.903,13.55 -3.676,12.835 -4.329,12 -4.863,11.047 -5.398,10.094 -5.767,9.097 -5.969,8.06 L -5.994,7.93 C -6.204,6.844 -6.218,5.825 -6.032,4.874 -5.847,3.921 -5.483,3.087 -4.946,2.372 -4.406,1.657 -3.722,1.084 -2.887,0.649 -2.055,0.217 -1.092,0 0,0 m -2.193,-10.614 c -2.841,0 -5.358,0.48 -7.552,1.44 -2.193,0.961 -4.002,2.283 -5.421,3.964 -1.421,1.682 -2.396,3.637 -2.922,5.864 -0.528,2.229 -0.546,4.61 -0.054,7.143 l 0.026,0.133 c 0.493,2.532 1.448,4.923 2.869,7.174 1.419,2.248 3.168,4.213 5.242,5.897 2.071,1.681 4.406,3.014 7.001,3.996 2.594,0.984 5.31,1.476 8.15,1.476 2.838,0 5.353,-0.492 7.542,-1.476 2.19,-0.982 3.998,-2.304 5.422,-3.964 1.424,-1.66 2.402,-3.602 2.93,-5.831 0.527,-2.228 0.545,-4.609 0.053,-7.142 L 21.068,7.93 C 20.575,5.395 19.619,3.003 18.199,0.754 16.778,-1.497 15.03,-3.463 12.957,-5.145 10.884,-6.825 8.549,-8.157 5.954,-9.141 3.36,-10.124 0.645,-10.614 -2.193,-10.614"
           style="fill:#272627;fill-opacity:1;fill-rule:nonzero;stroke:none"
           id="path112"
           inkscape:connector-curvature="0" />
      </g>
      <g
         id="g114"
         transform="translate(438.502,569.373)">
        <path
           d="m 0,0 13.04,0 -1.784,-9.174 -13.039,0 L 0,0 Z m -11.307,-58.514 c -1.007,0 -1.914,0.057 -2.72,0.164 -0.809,0.11 -1.577,0.208 -2.303,0.295 l 1.604,8.256 c 0.255,-0.042 0.523,-0.065 0.808,-0.065 l 0.819,0 c 1.221,0 2.199,0.305 2.929,0.917 0.731,0.614 1.244,1.681 1.541,3.21 l 6.483,33.354 12.516,0 -6.585,-33.879 c -0.431,-2.226 -1.088,-4.127 -1.964,-5.699 -0.877,-1.572 -1.945,-2.839 -3.209,-3.801 -1.262,-0.96 -2.726,-1.659 -4.392,-2.096 -1.665,-0.436 -3.508,-0.656 -5.527,-0.656"
           style="fill:#272627;fill-opacity:1;fill-rule:nonzero;stroke:none"
           id="path116"
           inkscape:connector-curvature="0" />
      </g>
      <g
         id="g118"
         transform="translate(475.6777,542.1807)">
        <path
           d="m 0,0 c 0.16,1.965 -0.19,3.528 -1.056,4.686 -0.868,1.157 -2.153,1.737 -3.858,1.737 -1.658,0 -3.125,-0.58 -4.399,-1.737 C -10.585,3.528 -11.59,1.965 -12.32,0 L 0,0 Z m -9.29,-21.491 c -2.796,0 -5.266,0.447 -7.405,1.343 -2.143,0.893 -3.899,2.137 -5.27,3.734 -1.372,1.595 -2.306,3.526 -2.805,5.8 -0.496,2.271 -0.478,4.783 0.057,7.534 l 0.026,0.133 c 0.5,2.576 1.406,4.988 2.718,7.239 1.308,2.248 2.926,4.214 4.849,5.897 1.921,1.681 4.065,3.003 6.438,3.964 2.369,0.961 4.866,1.443 7.487,1.443 3.057,0 5.609,-0.525 7.657,-1.573 C 6.506,12.974 8.09,11.565 9.209,9.796 10.329,8.025 11.022,5.974 11.289,3.637 11.555,1.3 11.433,-1.18 10.924,-3.8 10.848,-4.193 10.766,-4.609 10.682,-5.045 10.596,-5.482 10.49,-5.92 10.362,-6.355 l -23.72,0 c 0.097,-1.968 0.719,-3.43 1.865,-4.391 1.145,-0.961 2.7,-1.441 4.667,-1.441 1.484,0 2.906,0.283 4.262,0.852 1.354,0.566 2.788,1.484 4.302,2.751 l 5.773,-5.7 c -2.13,-2.186 -4.576,-3.932 -7.344,-5.242 -2.766,-1.311 -5.919,-1.965 -9.457,-1.965"
           style="fill:#272627;fill-opacity:1;fill-rule:nonzero;stroke:none"
           id="path120"
           inkscape:connector-curvature="0" />
      </g>
      <g
         id="g122"
         transform="translate(505.5713,520.6895)">
        <path
           d="m 0,0 c -2.664,0 -5.037,0.49 -7.116,1.474 -2.081,0.983 -3.779,2.304 -5.095,3.963 -1.314,1.661 -2.225,3.615 -2.727,5.866 -0.501,2.249 -0.509,4.619 -0.025,7.108 l 0.025,0.133 c 0.484,2.488 1.414,4.857 2.79,7.107 1.377,2.249 3.057,4.215 5.046,5.899 1.986,1.679 4.243,3.014 6.772,3.997 2.527,0.982 5.189,1.474 7.985,1.474 3.67,0 6.586,-0.72 8.754,-2.164 2.166,-1.441 3.779,-3.362 4.841,-5.765 l -9.675,-6.29 c -0.645,1.178 -1.404,2.096 -2.282,2.752 -0.879,0.655 -2.081,0.983 -3.61,0.983 -1.004,0 -1.972,-0.209 -2.906,-0.623 C 1.845,25.498 1.002,24.931 0.252,24.21 -0.5,23.488 -1.143,22.66 -1.674,21.72 -2.206,20.781 -2.577,19.766 -2.79,18.674 l -0.025,-0.13 c -0.222,-1.139 -0.253,-2.196 -0.094,-3.18 0.158,-0.982 0.472,-1.834 0.945,-2.554 0.47,-0.72 1.104,-1.289 1.897,-1.704 0.793,-0.417 1.713,-0.625 2.76,-0.625 1.486,0 2.806,0.329 3.959,0.984 1.155,0.656 2.344,1.552 3.57,2.687 l 7.15,-6.028 C 15.234,5.677 12.778,3.712 10.001,2.226 7.223,0.741 3.89,0 0,0"
           style="fill:#272627;fill-opacity:1;fill-rule:nonzero;stroke:none"
           id="path124"
           inkscape:connector-curvature="0" />
      </g>
      <g
         id="g126"
         transform="translate(539.9277,520.8193)">
        <path
           d="m 0,0 c -3.777,0 -6.545,0.896 -8.305,2.687 -1.759,1.79 -2.227,4.805 -1.402,9.042 l 2.801,14.417 -4.194,0 1.949,10.025 4.192,0 1.747,8.975 12.517,0 -1.747,-8.975 8.255,0 -1.949,-10.025 -8.255,0 -2.33,-11.992 c -0.247,-1.267 -0.138,-2.175 0.323,-2.72 0.461,-0.546 1.259,-0.819 2.396,-0.819 0.83,0 1.659,0.109 2.488,0.328 0.829,0.217 1.647,0.501 2.459,0.851 L 9.048,2.03 C 7.793,1.419 6.408,0.929 4.895,0.559 3.383,0.186 1.749,0 0,0"
           style="fill:#272627;fill-opacity:1;fill-rule:nonzero;stroke:none"
           id="path128"
           inkscape:connector-curvature="0" />
      </g>
      <g
         id="g130"
         transform="translate(268.0815,662.1123)">
        <path
           d="M 0,0 -63.766,0 -99.885,-27.667 -120.98,0 l -51.098,0 39.936,-52.374 -79.681,-61.035 63.766,0 39.426,30.199 23.027,-30.199 51.098,0 L -76.373,-58.5 0,0 Z"
           style="fill:#272627;fill-opacity:1;fill-rule:nonzero;stroke:none"
           id="path132"
           inkscape:connector-curvature="0" />
      </g>
      <g
         id="g134"
         transform="translate(121.5889,549.9023)">
        <path
           d="M 0,0 C -10.995,7.186 -19.866,17.338 -25.475,29.331 L -44.88,14.467 c 2.999,-5.578 6.537,-10.827 10.551,-15.666 l 32.765,0 L 0,0 Z"
           style="fill:#272627;fill-opacity:1;fill-rule:nonzero;stroke:none"
           id="path136"
           inkscape:connector-curvature="0" />
      </g>
      <g
         id="g138"
         transform="translate(103.8145,651.8711)">
        <path
           d="m 0,0 c 2.82,3.719 6.002,7.146 9.49,10.241 l -17.301,0 L 0,0 Z"
           style="fill:#272627;fill-opacity:1;fill-rule:nonzero;stroke:none"
           id="path140"
           inkscape:connector-curvature="0" />
      </g>
      <g
         id="g142"
         transform="translate(197.0176,548.7031)">
        <path
           d="m 0,0 36.201,0 c 0.062,0.076 0.127,0.147 0.189,0.224 L 21.283,20.033 C 15.66,11.974 8.414,5.13 0,0"
           style="fill:#272627;fill-opacity:1;fill-rule:nonzero;stroke:none"
           id="path144"
           inkscape:connector-curvature="0" />
      </g>
      <g
         id="g146"
         transform="translate(160.2378,538.4043)">
        <path
           d="m 0,0 c -13.3,0 -25.741,3.677 -36.371,10.059 l -2.306,-1.766 -0.68,-0.521 -0.856,0 -30.576,0 c 17.36,-19.493 42.635,-31.782 70.791,-31.782 28.156,0 53.43,12.289 70.789,31.782 l -38.56,0 C 22.562,2.814 11.613,0 0,0"
           style="fill:#272627;fill-opacity:1;fill-rule:nonzero;stroke:none"
           id="path148"
           inkscape:connector-curvature="0" />
      </g>
      <g
         id="g150"
         transform="translate(227.5366,631.0566)">
        <path
           d="m 0,0 19.918,15.256 c -2.371,5.558 -5.252,10.847 -8.595,15.8 l -31.688,0 C -11.052,22.793 -3.938,12.116 0,0"
           style="fill:#272627;fill-opacity:1;fill-rule:nonzero;stroke:none"
           id="path152"
           inkscape:connector-curvature="0" />
      </g>
      <g
         id="g154"
         transform="translate(89.4727,609.1699)">
        <path
           d="m 0,0 c 0,15.094 4.741,29.073 12.793,40.561 l -8.272,10.849 -3.096,4.06 5.106,0 20.321,0 c 12.068,9.566 27.317,15.295 43.913,15.295 16.597,0 31.846,-5.729 43.914,-15.295 l 0.164,0 32.75,0 C 130.377,79.275 102.391,94.777 70.767,94.777 18.423,94.777 -24.011,52.345 -24.011,0 c 0,-15.293 3.643,-29.726 10.076,-42.515 L 5.573,-27.572 C 1.985,-19.1 0,-9.782 0,0"
           style="fill:#272627;fill-opacity:1;fill-rule:nonzero;stroke:none"
           id="path156"
           inkscape:connector-curvature="0" />
      </g>
      <g
         id="g158"
         transform="translate(244.0933,633.2305)">
        <path
           d="M 0,0 C 2.285,1.249 4.598,2.308 6.904,3.191 6.144,5.721 5.295,8.209 4.336,10.645 L -15.777,-4.761 c 0.599,-2.117 1.098,-4.277 1.504,-6.469 C -10.559,-7.021 -5.723,-3.127 0,0"
           style="fill:#272627;fill-opacity:1;fill-rule:nonzero;stroke:none"
           id="path160"
           inkscape:connector-curvature="0" />
      </g>
      <g
         id="g162"
         transform="translate(225.2959,581.3662)">
        <path
           d="M 0,0 C -1.555,-3.634 -3.394,-7.118 -5.511,-10.408 L 9.724,-30.389 c 4.574,5.872 8.443,12.311 11.548,19.169 C 12.292,-9.184 4.766,-5.101 0,0"
           style="fill:#272627;fill-opacity:1;fill-rule:nonzero;stroke:none"
           id="path164"
           inkscape:connector-curvature="0" />
      </g>
    </g>
  </g>
</svg>
